<?xml version="1.0" encoding="UTF-8" standalone="no"?>
<svg width="312px" height="205px" viewBox="0 0 312 205" version="1.1" xmlns="http://www.w3.org/2000/svg" xmlns:xlink="http://www.w3.org/1999/xlink" xmlns:sketch="http://www.bohemiancoding.com/sketch/ns">
    <!-- Generator: Sketch 3.5.1 (25234) - http://www.bohemiancoding.com/sketch -->
    <title>panara-logo</title>
    <desc>Created with Sketch.</desc>
    <defs></defs>
    <g id="Welcome" stroke="none" stroke-width="1" fill="none" fill-rule="evenodd" sketch:type="MSPage">
        <g id="Desktop-HD" sketch:type="MSArtboardGroup" transform="translate(-84.000000, -71.000000)" fill="#FFFFFF">
            <g id="Header" sketch:type="MSLayerGroup">
                <g id="Icon-&amp;-Name" transform="translate(110.000000, 58.000000)" sketch:type="MSShapeGroup">
                    <path d="M116.716723,67.9445832 C117.355231,67.4409 118.020445,66.9299522 118.624965,66.4335337 C120.836679,64.3994287 122.536131,62.3217358 124.813396,59.5442138 C126.588109,56.7182608 129.295093,54.73743 131.567502,51.9623296 C133.274237,49.8822151 134.980972,47.799679 137.110142,46.5114125 C139.24174,45.2158813 142.492548,43.2084134 144.730968,41.3631896 C145.286932,40.9030944 145.680233,40.5786062 145.973996,40.3267647 C145.801623,40.5398614 145.867173,40.6221942 146.860138,40.07008 C148.326522,39.2637026 151.732709,45.6783981 153.713784,45.8721223 C157.685645,46.2547278 158.530515,53.0762442 159.586603,57.6699314 C160.293089,60.7380397 161.560394,63.1063191 163.335107,65.5254512 C163.653147,65.9855463 163.920204,66.3318285 164.216394,66.762865 C164.267378,66.6853753 164.3305,66.6296796 164.381484,66.5521899 C165.847868,64.3921641 167.30454,62.239403 169.246771,60.8034217 C171.196285,59.3625973 172.169828,58.6458174 174.602471,60.0842203 C176.551985,61.5226231 178.494215,62.239403 180.441301,60.8034217 C181.905257,60.0842203 183.36193,58.6458174 185.311444,58.6458174 C189.203188,58.6458174 190.667144,65.113787 192.126244,69.426574 C193.092504,72.2985365 194.566171,74.4537192 196.508402,76.6113234 C198.941045,79.483286 198.067041,83.9776894 200.499685,86.1304505 C202.844928,89.0120993 204.913403,93.5525122 207.144541,97.4778506 C206.668694,96.9257364 206.049608,96.5068076 205.471795,96.5867189 C202.837645,96.4196317 204.585652,97.746643 203.631531,98.4004625 C202.883773,100.584704 197.261016,97.6909473 196.098105,96.8070802 C195.520292,96.3639359 194.930339,95.9183701 194.350098,95.4776473 C193.320716,95.6180974 192.810881,95.6883225 192.225784,95.2427566 C190.99004,93.8455202 193.558639,93.5040812 193.932519,92.4071174 C194.818661,91.2447717 195.665959,85.9173538 193.92038,84.5903424 C192.825447,84.2174232 192.381162,84.8010176 191.419758,85.4475724 C190.533615,86.6099181 190.08933,87.191091 189.062376,87.326698 C188.032994,87.4671481 187.523158,87.5349516 187.010895,87.6051766 C185.983941,87.7456268 185.542083,88.3292212 185.022537,88.3970247 C183.553725,89.1186476 182.973484,88.6755033 181.295882,87.8570182 C179.106018,87.1087582 175.41578,90.738667 174.9982,87.6632939 C174.72386,85.6195027 173.653206,81.5948807 175.568731,80.2920848 C174.61461,80.9459043 173.653206,81.5948807 172.181966,82.3116605 C171.152584,82.4521106 170.635466,82.5223357 169.613367,82.6603642 C168.144555,83.3771441 166.743721,84.6121364 165.716767,84.7477434 C163.667714,85.021379 161.10397,85.3700827 159.052489,85.6534045 C156.479034,85.9948435 155.080628,87.2274143 152.655268,88.5955921 C151.761842,89.7627809 150.157074,89.452822 148.62514,89.6610756 C147.078639,89.8669077 146.636782,90.4480805 145.675378,91.1019 C144.204138,91.8186799 144.580445,90.7314023 143.041228,90.9348128 C141.50201,91.145488 142.664921,92.0269335 141.77635,93.1892792 C140.82223,93.8430987 139.802559,93.9762841 139.28544,94.0465092 C138.256058,94.1845377 137.233959,94.3225663 136.139027,93.949647 C135.546647,93.5065027 135.998215,92.9277514 134.900855,92.5524106 C133.805923,92.1843345 132.334683,92.9011143 131.817564,92.9713394 C130.950844,93.0875739 127.879692,97.0589218 126.534698,97.9645828 L125.58786,97.9234164 C123.679619,96.8385604 124.580328,90.196239 123.424701,88.8910216 C121.40721,85.5129544 119.445557,82.650678 115.274617,82.694266 C113.150303,82.4593753 110.652109,83.3166053 109.253703,84.5467545 C108.367561,85.7091002 107.311473,89.4988315 104.980796,87.7286759 C103.235217,86.4016645 105.318259,82.4714831 106.136423,80.8006111 C106.364636,78.6817517 107.627085,76.4272853 108.447678,74.7539918 C109.200292,72.5697505 111.040555,70.7535853 113.024058,69.9641589 C113.434354,69.7655915 113.924767,69.632406 114.422464,69.5016421 C114.441886,69.5694456 114.468592,69.6396707 114.495297,69.7050526 C114.648248,69.5839749 114.791487,69.4701619 114.946866,69.3515058 C115.830581,69.1020858 116.529784,68.7122157 116.716723,67.9445832 L116.716723,67.9445832 Z M259.686727,147.398178 C262.6025,144.521372 244.204723,141.986005 244.204723,135.515614 C244.204723,133.360431 243.721594,129.052488 242.745623,127.618928 C241.77208,125.461324 239.339436,124.742122 237.873052,123.306141 C234.959707,121.87016 233.010193,119.714977 230.09442,117.559794 C229.113594,116.121392 228.144906,114.687832 227.171363,112.530228 C225.704979,110.375045 223.757893,108.222284 222.298793,106.067101 C220.356562,103.909497 216.090939,105.786201 214.143853,103.63344 C212.684753,102.195037 210.293381,101.710726 208.829425,100.272323 C208.440979,99.7032583 208.076811,99.032488 207.707787,98.4053056 C207.761199,98.5578635 207.848599,98.7201076 207.868021,98.8629792 C207.054712,100.536273 204.486113,100.880133 202.432204,101.161034 C200.383151,101.437091 198.7711,101.131975 197.163904,100.822016 C196.13695,100.962466 194.597732,101.175563 193.570778,101.31117 L192.543824,101.449198 C192.305901,101.480679 192.126244,101.604178 191.94416,101.744628 C191.594559,102.686612 191.87861,103.844115 192.072833,105.282518 C192.126244,110.159527 185.221615,104.376857 183.854771,103.342853 C181.893118,102.388761 181.725601,101.185249 179.844065,100.829281 C177.964957,100.475734 175.476475,100.199677 174.434954,101.563011 C172.71608,102.400869 172.439312,104.88054 170.115919,105.803152 C168.394617,106.645852 166.595626,106.890429 164.189689,107.212496 C162.397981,107.457073 159.98476,107.779139 157.583678,108.103628 C156.979158,108.188382 156.381923,108.270715 155.180168,108.428116 C154.065813,109.193327 154.388709,111.588243 153.34476,112.951578 C152.990303,114.828282 151.351546,116.269106 150.992233,118.148232 C150.547948,119.424391 149.763773,122.584518 147.190317,121.710337 C143.866676,119.724663 149.494288,111.636674 146.930544,110.762493 C145.893879,112.123407 144.604723,111.682684 143.650603,113.644142 C143.213601,114.927566 143.786559,119.119275 141.298076,118.843218 C140.620723,118.325005 140.450778,117.128758 139.686025,116.012422 C138.326464,114.973575 137.117425,115.135819 136.165732,117.099699 C135.646186,117.775313 135.891392,119.574527 135.371846,120.254983 C135.017389,122.134109 133.97344,123.495022 133.616555,125.376569 C132.744979,127.936151 131.259173,130.573223 129.865623,133.813262 C129.431049,135.091842 128.389528,136.450334 128.632306,138.249548 C128.195305,139.528128 128.435656,141.327343 126.112263,142.252376 C123.116372,142.654354 123.062961,137.782188 122.732782,135.38485 C122.572548,134.18376 122.409886,132.987512 121.128014,132.549211 C120.52835,132.626701 119.931114,132.709034 119.246478,132.195664 C118.641959,132.280419 117.962178,131.762206 117.801944,130.556272 C117.721827,129.958149 117.471765,128.163777 117.311531,126.960265 C117.158581,125.766439 117.588299,124.485438 117.34552,122.688645 C116.585623,121.572309 115.296467,121.129164 114.53657,120.01525 C113.167297,118.981246 111.373162,119.22098 110.001462,118.186977 C109.321681,117.668764 109.08133,115.874393 108.394266,115.351337 C107.029849,114.317334 105.148314,113.961366 103.946559,114.121188 C102.14514,114.365765 99.901864,115.886501 97.9402114,114.932409 C96.7360286,115.092231 95.9712754,113.980738 95.2914947,113.462526 C93.9270779,112.426101 92.6452059,111.9878 90.8437872,112.229955 C87.6803795,111.438107 85.2744417,111.760174 81.42397,110.454956 C80.2197872,110.612357 79.455034,109.496021 78.1780176,109.05772 C76.2891986,108.704173 75.0073265,108.265872 73.1257909,107.912325 C71.8414911,107.474024 69.9550998,107.118055 68.6780834,106.679754 C66.0317945,105.209871 63.9803137,103.652812 62.4556629,101.42014 C61.1980687,99.8533946 59.1174545,99.3715055 57.4374252,98.4876384 C56.1069974,99.8291791 54.7571473,101.192514 53.4801309,102.437192 C51.4844892,103.735145 48.991151,105.030676 46.9955093,106.977605 C44.4973155,110.217644 41.0085843,112.811128 38.5103905,115.409455 C36.5147488,117.356384 35.0216592,119.296048 33.5237141,121.245399 C32.0257689,123.192328 32.3559481,122.153481 30.8628585,124.097989 L33.0284453,119.949868 C31.0255203,122.545773 29.5348585,125.134414 28.0344855,127.723055 C26.5365404,130.316539 24.5408987,132.265889 24.0432022,134.859373 C22.545257,138.099412 -0.494450513,159.491416 0.00810158957,162.089743 C0.505798117,165.329782 35.0216592,159.486573 37.0173009,161.433502 C38.5103905,162.080057 43.7374179,163.143119 45.3106245,162.680602 C48.2458201,161.818529 50.5522186,161.058161 52.3657762,160.375283 C52.7420834,163.976133 51.6058786,168.325243 53.4801309,168.807133 C58.4716629,170.107507 63.4583393,167.729541 67.9521748,167.729541 L80.1809426,167.729541 C80.1396702,167.729541 80.0741199,169.371355 80.0862589,169.470638 C80.2877653,170.964737 86.2868293,171.373979 93.3298421,170.737111 C98.127151,173.081175 104.140782,178.982501 108.508372,177.953341 C111.302756,177.146963 112.875963,173.003685 114.636109,169.555393 C115.408146,169.615932 116.000526,169.807234 116.194749,170.022753 C117.661133,170.746797 122.752204,172.090759 124.286566,171.582233 C124.842529,171.393352 125.328087,171.243216 125.845206,171.066442 C127.517952,171.981789 129.338793,173.538848 131.205762,175.156446 C131.125645,178.369848 131.0868,180.452384 132.264277,180.801088 C137.129564,182.234647 142.002135,182.258863 146.379436,182.258863 L167.792526,182.258863 C172.665096,182.258863 180.591824,191.27915 185.942668,189.84559 C190.324826,188.402344 191.64797,175.304161 195.537286,173.863337 C197.96993,172.432198 199.431458,171.219 201.380972,169.780597 C202.832789,169.063817 204.296745,168.458429 205.755846,167.020026 C208.678903,164.864843 225.180577,168.218695 228.089067,166.782714 C230.045864,166.063512 228.089067,166.811773 229.555451,166.09015 C231.995378,165.37337 223.762749,157.055333 225.712263,155.621773 C229.604007,154.183371 256.273257,150.27014 259.686727,147.398178 L259.686727,147.398178 Z M66.2430121,95.5720879 C66.2163064,95.4074223 66.1896007,95.2475997 66.2624344,95.034503 C66.128906,94.0126074 67.6656958,93.8019322 68.6950779,93.6687468 C69.7147488,93.5282967 70.2342954,93.4580716 71.6982516,92.7412918 C72.6596556,92.0874723 73.5457982,90.9275481 74.4999188,90.2785718 C76.3401821,88.4648282 77.8114216,87.7480483 80.8971401,87.3291195 C82.9461931,87.055484 85.0025295,86.7745838 86.4664856,86.0553824 C88.3820103,84.7550081 88.6927671,83.1495181 90.6738421,82.3625132 C91.6279627,81.7086937 92.654917,81.5755082 93.1720359,81.5052832 C94.5704417,80.275134 94.9394655,79.1830133 95.8256081,78.0206676 C97.1633192,76.2747275 99.7294911,75.9308669 101.127897,74.6958745 C102.01404,73.5359504 101.880511,72.5116332 102.834632,71.8602353 C103.210939,70.7656931 104.16506,70.1191383 105.124036,69.4677404 C106.522442,68.2351696 108.503517,67.4433216 110.491875,66.6563167 C110.921593,66.5957778 112.016526,66.3851027 113.167297,66.2809759 C112.293294,64.2129691 111.23235,62.3072065 109.678566,61.452398 L104.869118,52.2674453 L99.8581638,49.9645479 L98.3529353,55.008644 C95.7794801,57.4180898 92.7617397,61.9851398 91.3997507,62.8714284 C89.404109,64.1718027 87.9061638,66.1187318 86.4057909,68.0632393 C84.4101492,70.6567232 81.916811,72.6036522 80.4188658,75.1971361 C78.4232241,77.7954631 76.925279,79.7375491 74.9296373,81.6844782 C71.9386026,84.2803836 68.4450157,86.8714459 65.4564088,90.1139061 C63.9706026,91.7654057 62.2590121,93.5573553 60.5304271,95.3444619 L66.2430121,95.5720879 L66.2430121,95.5720879 Z" id="panara-logo"></path>
                </g>
            </g>
        </g>
    </g>
</svg>