<svg width="312" height="205" viewBox="0 0 312 205" xmlns="http://www.w3.org/2000/svg"><title>panara-logo</title><path d="M142.717 54.945c.638-.504 1.303-1.015 1.908-1.511 2.212-2.035 3.911-4.112 6.188-6.89 1.775-2.826 4.482-4.807 6.755-7.582 1.706-2.08 3.413-4.162 5.542-5.45 2.132-1.296 5.383-3.304 7.621-5.149.556-.46.95-.784 1.243-1.036-.172.213-.107.295.886-.257 1.467-.806 4.873 5.608 6.854 5.802 3.972.383 4.817 7.204 5.873 11.798.706 3.068 1.973 5.436 3.748 7.855.318.46.585.807.881 1.238.051-.078.114-.133.165-.21 1.467-2.16 2.924-4.314 4.866-5.75 1.95-1.44 2.923-2.157 5.355-.719 1.95 1.439 3.892 2.155 5.84.72 1.463-.72 2.92-2.158 4.87-2.158 3.891 0 5.355 6.468 6.814 10.78.967 2.873 2.44 5.028 4.382 7.185 2.433 2.872 1.559 7.367 3.992 9.52 2.345 2.881 4.413 7.422 6.645 11.347-.476-.552-1.095-.971-1.673-.891-2.634-.167-.886 1.16-1.84 1.813-.748 2.185-6.371-.71-7.534-1.593-.578-.443-1.168-.889-1.748-1.33-1.03.141-1.54.211-2.124-.234-1.236-1.397 1.333-1.739 1.707-2.836.886-1.162 1.733-6.49-.013-7.817-1.095-.373-1.539.211-2.5.858-.886 1.162-1.33 1.743-2.358 1.879l-2.051.278c-1.027.14-1.469.724-1.988.792-1.47.722-2.05.279-3.727-.54-2.19-.748-5.88 2.882-6.298-.194-.274-2.043-1.345-6.068.57-7.37-.953.653-1.915 1.302-3.386 2.019l-2.569.348c-1.468.717-2.87 1.952-3.896 2.088-2.05.273-4.613.622-6.665.905-2.573.342-3.971 1.574-6.397 2.943-.893 1.167-2.498.857-4.03 1.065-1.546.206-1.988.787-2.95 1.44-1.47.718-1.095-.37-2.634-.166-1.539.21-.376 1.092-1.265 2.254-.954.654-1.973.787-2.49.858-1.03.138-2.052.276-3.147-.097-.592-.443-.14-1.022-1.238-1.398-1.095-.368-2.566.35-3.083.42-.867.116-3.938 4.087-5.283 4.993l-.947-.042c-1.908-1.084-1.008-7.727-2.163-9.032-2.018-3.378-3.98-6.24-8.15-6.197-2.125-.235-4.623.623-6.021 1.853-.886 1.162-1.943 4.952-4.273 3.182-1.746-1.327.337-5.258 1.155-6.928.229-2.12 1.491-4.374 2.312-6.047.752-2.184 2.593-4 4.576-4.79.41-.198.9-.332 1.398-.462.02.067.047.138.073.203.153-.121.296-.235.452-.353.884-.25 1.583-.64 1.77-1.407zm142.97 79.453c2.916-2.877-15.482-5.412-15.482-11.882 0-2.156-.483-6.464-1.46-7.897-.973-2.158-3.406-2.877-4.872-4.313-2.913-1.436-4.863-3.591-7.779-5.746-.98-1.439-1.95-2.872-2.923-5.03-1.466-2.155-3.413-4.308-4.872-6.463-1.942-2.158-6.208-.28-8.155-2.434-1.46-1.438-3.85-1.922-5.315-3.36-.388-.57-.752-1.24-1.121-1.868.053.153.14.315.16.458-.813 1.673-3.382 2.017-5.436 2.298-2.049.276-3.66-.029-5.268-.339-1.027.14-2.566.354-3.593.49l-1.027.137c-.238.032-.418.155-.6.296-.35.942-.065 2.1.129 3.538.053 4.877-6.851-.906-8.218-1.94-1.962-.954-2.13-2.158-4.01-2.514-1.88-.353-4.369-.63-5.41.734-1.719.838-1.996 3.318-4.32 4.24-1.72.843-3.52 1.087-5.925 1.41-1.792.244-4.205.566-6.606.89-.605.085-1.202.168-2.404.325-1.114.765-.791 3.16-1.835 4.524-.355 1.876-1.993 3.317-2.353 5.196-.444 1.276-1.228 4.437-3.802 3.562-3.323-1.985 2.304-10.073-.26-10.948-1.036 1.361-2.325.92-3.28 2.882-.436 1.284.137 5.475-2.352 5.2-.677-.519-.847-1.715-1.612-2.832-1.36-1.038-2.569-.876-3.52 1.088-.52.675-.275 2.475-.794 3.155-.355 1.88-1.399 3.24-1.755 5.122-.872 2.56-2.358 5.196-3.751 8.436-.435 1.279-1.476 2.637-1.234 4.437-.437 1.278-.196 3.077-2.52 4.002-2.996.402-3.049-4.47-3.38-6.867-.16-1.201-.322-2.397-1.604-2.836-.6.078-1.197.16-1.882-.353-.604.084-1.284-.434-1.444-1.64-.08-.598-.33-2.392-.49-3.596-.153-1.194.276-2.475.034-4.271-.76-1.117-2.05-1.56-2.81-2.674-1.369-1.034-3.163-.794-4.535-1.828-.68-.518-.92-2.313-1.607-2.836-1.364-1.034-3.246-1.39-4.447-1.23-1.802.245-4.045 1.766-6.007.811-1.204.16-1.969-.951-2.649-1.47-1.364-1.036-2.646-1.474-4.447-1.232-3.164-.792-5.57-.47-9.42-1.775-1.204.157-1.969-.959-3.246-1.397-1.889-.354-3.17-.792-5.052-1.146-1.285-.438-3.17-.794-4.448-1.232-2.646-1.47-4.698-3.027-6.222-5.26-1.258-1.567-3.339-2.048-5.019-2.932-1.33 1.341-2.68 2.705-3.957 3.95-1.996 1.297-4.489 2.593-6.484 4.54-2.499 3.24-5.987 5.833-8.486 8.431-1.995 1.947-3.488 3.887-4.986 5.836-1.498 1.947-1.168.908-2.661 2.853l2.165-4.148c-2.002 2.596-3.493 5.184-4.994 7.773-1.497 2.594-3.493 4.543-3.99 7.136-1.499 3.24-24.538 24.632-24.036 27.23.498 3.24 35.014-2.602 37.01-.655 1.492.646 6.72 1.71 8.293 1.247 2.935-.862 5.241-1.623 7.055-2.306.376 3.601-.76 7.95 1.114 8.432 4.992 1.3 9.978-1.077 14.472-1.077h12.229c-.041 0-.107 1.641-.095 1.74.202 1.495 6.2 1.904 13.244 1.267 4.797 2.344 10.81 8.246 15.178 7.216 2.795-.806 4.368-4.95 6.128-8.398.772.06 1.365.252 1.559.468 1.466.724 6.557 2.068 8.092 1.56.556-.19 1.041-.34 1.558-.517 1.673.916 3.494 2.473 5.36 4.09-.08 3.214-.118 5.296 1.06 5.645 4.865 1.434 9.737 1.458 14.114 1.458h21.414c4.872 0 12.799 9.02 18.15 7.587 4.382-1.444 5.705-14.542 9.594-15.983 2.433-1.43 3.894-2.644 5.844-4.082 1.452-.717 2.916-1.323 4.375-2.761 2.923-2.155 19.425 1.199 22.333-.237 1.957-.72 0 .029 1.466-.693 2.44-.717-5.792-9.035-3.843-10.468 3.892-1.439 30.561-5.352 33.975-8.224zM92.243 82.572c-.027-.165-.053-.324.02-.537-.134-1.022 1.403-1.233 2.432-1.366 1.02-.14 1.54-.21 3.003-.928.962-.654 1.848-1.813 2.802-2.462 1.84-1.814 3.311-2.531 6.397-2.95 2.05-.274 4.106-.554 5.57-1.274 1.915-1.3 2.226-2.905 4.207-3.692.954-.654 1.98-.787 2.498-.858 1.398-1.23 1.767-2.322 2.654-3.484 1.337-1.746 3.903-2.09 5.302-3.325.886-1.16.753-2.184 1.707-2.836.376-1.094 1.33-1.74 2.289-2.392 1.398-1.233 3.38-2.025 5.368-2.812.43-.06 1.525-.27 2.675-.375-.874-2.068-1.935-3.974-3.488-4.829l-4.81-9.185-5.01-2.302-1.506 5.044c-2.574 2.41-5.591 6.976-6.953 7.862-1.996 1.3-3.494 3.248-4.994 5.192-1.996 2.594-4.49 4.54-5.987 7.134-1.996 2.598-3.494 4.54-5.49 6.487-2.99 2.596-6.484 5.187-9.473 8.43-1.485 1.651-3.197 3.443-4.926 5.23l5.713.228z" fill="#FFF" fill-rule="evenodd"/></svg>