<svg xmlns="http://www.w3.org/2000/svg" width="320" height="320"><path d="M70.38 217.254c0 1.093 0 2.651 1.709 2.651s1.709-1.559 1.709-2.651v-5.278h.744v5.825c0 2.162-1.139 2.732-2.453 2.732s-2.454-.57-2.454-2.732v-5.825h.744v5.278zm5.834 3.116v-8.395h1.139l3.407 7.371.023-.023v-7.348h.744v8.395h-1.127l-3.418-7.453-.023.023v7.43h-.745zm7.868-8.394v8.395h-.744v-8.395h.744zm4.149-.164c2.732 0 2.535 2.732 2.535 4.36 0 2.197-.174 3.034-.954 3.546l.023.023h1.465v.628h-1.604l-.5.023c-.174.012-.36.023-.604.023-2.883 0-2.895-1.582-2.895-4.244-.001-1.626-.198-4.359 2.534-4.359zm1.79 4.361c0-2.116.023-3.732-1.791-3.732s-1.791 1.616-1.791 3.732c0 2.418.163 3.616 1.791 3.616 1.582 0 1.791-1.488 1.791-3.616zm2.962 1.081c0 1.093 0 2.651 1.709 2.651s1.709-1.559 1.709-2.651v-5.278h.744v5.825c0 2.162-1.139 2.732-2.453 2.732s-2.454-.57-2.454-2.732v-5.825h.744v5.278zm9.613-5.278v.628h-3.058v3.139h2.918v.628h-2.918v3.372h3.139v.628h-3.883v-8.395h3.802zm3.855 0h3.546v.628h-2.802v3.139h2.604v.628h-2.604v4h-.744v-8.395zm7.184 0l2.616 8.395h-.779l-.674-2.209h-3.291l-.663 2.209h-.744l2.651-8.395h.884zm.965 5.557l-1.43-4.744h-.023l-1.418 4.744h2.871zm6.205-3.429c-.023-1.035-.279-1.663-1.418-1.663-.907 0-1.477.313-1.477 1.302 0 1.244.628 1.279 1.581 1.966 1.035.744 2.093.965 2.093 2.593 0 1.5-.768 2.232-2.232 2.232-1.64 0-2.372-.884-2.302-2.523h.767c0 .931.07 1.896 1.57 1.896.977 0 1.454-.523 1.454-1.488 0-1.14-.756-1.465-1.965-2.209-1.628-1-1.697-1.5-1.709-2.338-.012-1.453.907-2.058 2.279-2.058 1.744 0 2.116 1.081 2.116 2.291h-.757zm2.253 6.266v-8.395h.744v3.767h3.302v-3.767h.744v8.395h-.744v-4h-3.302v4h-.744zm7.286-8.394v8.395h-.744v-8.395h.744zm4.15-.164c2.511 0 2.535 2.093 2.535 4.36s-.023 4.36-2.535 4.36-2.535-2.093-2.535-4.36.023-4.36 2.535-4.36zm0 8.093c1.767 0 1.791-1.5 1.791-3.732s-.023-3.732-1.791-3.732-1.791 1.5-1.791 3.732.024 3.732 1.791 3.732zm4.124.465v-8.395h1.139l3.407 7.371.023-.023v-7.348h.744v8.395h-1.128l-3.418-7.453-.023.023v7.43h-.744zm10.6-6.266c-.023-1.035-.279-1.663-1.418-1.663-.907 0-1.477.313-1.477 1.302 0 1.244.628 1.279 1.581 1.966 1.035.744 2.093.965 2.093 2.593 0 1.5-.768 2.232-2.232 2.232-1.64 0-2.372-.884-2.302-2.523h.767c0 .931.07 1.896 1.57 1.896.977 0 1.454-.523 1.454-1.488 0-1.14-.756-1.465-1.965-2.209-1.628-1-1.697-1.5-1.709-2.338-.012-1.453.907-2.058 2.279-2.058 1.744 0 2.116 1.081 2.116 2.291h-.757zm7.681-2.128l2.616 8.395h-.779l-.674-2.209h-3.291l-.663 2.209h-.744l2.651-8.395h.884zm.965 5.557l-1.43-4.744h-.023l-1.418 4.744h2.871zm2.706 2.837v-8.395h1.139l3.407 7.371.023-.023v-7.348h.744v8.395h-1.128l-3.418-7.453-.023.023v7.43h-.744zm7.076-8.394h2.221c2.35 0 2.641 1.372 2.641 4.232 0 2.79-.408 4.162-2.942 4.162h-1.919v-8.394zm.745 7.766h.907c2.244 0 2.466-.604 2.466-4.034 0-2.407-.326-3.104-2.396-3.104h-.977v7.138zm8.215-7.766h3.546v.628h-2.802v3.139h2.604v.628h-2.604v4h-.744v-8.395zm7.184 0l2.616 8.395h-.779l-.674-2.209h-3.291l-.662 2.208h-.744l2.65-8.395h.884zm.965 5.557l-1.431-4.744h-.023l-1.418 4.744h2.872zm2.6 2.837v-8.395h2.338c1.313 0 1.988.534 1.988 2.011 0 1.012-.163 1.71-1.221 2v.023c1.104.232 1.395.965 1.395 2.023 0 1.512-.721 2.337-2.127 2.337h-2.373zm2.175-4.662c1.069 0 1.407-.733 1.407-1.687 0-1.396-.768-1.418-1.361-1.418h-1.476v3.104h1.43zm-1.43 4.034h1.187c1.232 0 1.825-.419 1.825-1.651 0-.744-.221-1.755-1.5-1.755h-1.512v3.406zm5.798-2.488c0 1.093 0 2.651 1.71 2.651 1.709 0 1.709-1.559 1.709-2.651v-5.278h.744v5.825c0 2.162-1.14 2.732-2.453 2.732s-2.454-.57-2.454-2.732v-5.825h.744v5.278zm5.718 3.116v-8.395h.744v7.767h2.778v.628h-3.522zm6.974-8.558c2.512 0 2.535 2.093 2.535 4.36s-.023 4.36-2.535 4.36-2.535-2.093-2.535-4.36.023-4.36 2.535-4.36zm0 8.093c1.768 0 1.791-1.5 1.791-3.732s-.023-3.732-1.791-3.732-1.791 1.5-1.791 3.732.023 3.732 1.791 3.732zm4.753-2.651c0 1.093 0 2.651 1.709 2.651s1.709-1.559 1.709-2.651v-5.278h.744v5.825c0 2.162-1.14 2.732-2.453 2.732s-2.453-.57-2.453-2.732v-5.825h.744v5.278zm9.333-3.15c-.023-1.035-.279-1.663-1.419-1.663-.907 0-1.477.313-1.477 1.302 0 1.244.628 1.279 1.581 1.966 1.035.744 2.093.965 2.093 2.593 0 1.5-.768 2.232-2.232 2.232-1.64 0-2.372-.884-2.302-2.523h.768c0 .931.069 1.896 1.569 1.896.977 0 1.453-.523 1.453-1.488 0-1.14-.756-1.465-1.965-2.209-1.628-1-1.697-1.5-1.709-2.338-.012-1.453.907-2.058 2.279-2.058 1.743 0 2.115 1.081 2.115 2.291h-.754zm4.786-2.128h3.546v.628h-2.802v3.139h2.604v.628h-2.604v4h-.744v-8.395zm5.392 0v8.395h-.744v-8.395h.744zm1.812 8.394v-8.395h1.14l3.406 7.371.023-.023v-7.348h.744v8.395h-1.128l-3.418-7.453-.023.023v7.43h-.744zm7.077-8.394h2.221c2.349 0 2.64 1.372 2.64 4.232 0 2.79-.407 4.162-2.941 4.162h-1.919v-8.394zm.744 7.766h.907c2.244 0 2.465-.604 2.465-4.034 0-2.407-.326-3.104-2.396-3.104h-.977v7.138zm9.241-5.638c-.023-1.035-.279-1.663-1.419-1.663-.907 0-1.477.313-1.477 1.302 0 1.244.628 1.279 1.581 1.966 1.035.744 2.093.965 2.093 2.593 0 1.5-.768 2.232-2.232 2.232-1.639 0-2.372-.884-2.302-2.523h.768c0 .931.069 1.896 1.569 1.896.977 0 1.453-.523 1.453-1.488 0-1.14-.756-1.465-1.965-2.209-1.628-1-1.697-1.5-1.709-2.338-.012-1.453.907-2.058 2.279-2.058 1.743 0 2.115 1.081 2.115 2.291h-.754zm-160.287-62.007c2.051 0 3.802.299 5.255.897s2.641 1.461 3.563 2.589c.922 1.128 1.598 2.504 2.025 4.127.427 1.624.641 3.461.641 5.512s-.291 3.803-.872 5.255c-.581 1.453-1.384 2.641-2.409 3.563s-2.239 1.599-3.64 2.025c-1.402.427-2.922.641-4.563.641h-4.922v21.328h-6.562v-45.938h11.484zm-3.281 19.687c1.641 0 2.99-.111 4.05-.333 1.059-.222 1.897-.59 2.512-1.103s1.042-1.188 1.282-2.025c.239-.837.359-1.871.359-3.102s-.043-2.35-.128-3.358-.384-1.871-.897-2.589-1.325-1.273-2.436-1.666-2.691-.59-4.742-.59h-1.641v14.766h1.641zm23.481 14.766l-2.461 11.484h-6.562l9.844-45.938h6.562l9.843 45.938h-6.562l-2.461-11.484h-8.203zm7.383-4.922l-3.281-19.688-3.281 19.688h6.562zm32.914 16.406l-11.741-30.557v30.557h-6.562v-45.938h4.922l11.484 28.403v-28.403h6.562v45.938h-4.665zm18.457-11.484l-2.461 11.484h-6.562l9.843-45.938h6.562l9.844 45.938h-6.562l-2.461-11.484h-8.203zm7.382-4.922l-3.281-19.688-3.281 19.688h6.562zm32.71 16.406l-6.613-21.328h-4.922v21.328h-6.562v-45.938h8.203c2.871 0 5.255.295 7.152.884 1.896.59 3.409 1.423 4.537 2.5s1.922 2.371 2.384 3.884c.461 1.512.692 3.191.692 5.037 0 1.829-.192 3.371-.577 4.627s-.867 2.299-1.448 3.128-1.205 1.47-1.871 1.922c-.667.453-1.282.782-1.846.987l7.383 22.969h-6.512zm-11.535-26.25h1.641c1.23 0 2.35-.115 3.358-.346 1.008-.231 1.871-.629 2.589-1.192s1.272-1.32 1.666-2.269c.393-.948.59-2.141.59-3.576s-.197-2.628-.59-3.576c-.394-.948-.948-1.705-1.666-2.269s-1.581-.961-2.589-1.192c-1.009-.231-2.128-.346-3.358-.346h-1.641v14.766zm29.658 14.766l-2.461 11.484h-6.562l9.844-45.938h6.562l9.844 45.938h-6.562l-2.461-11.484h-8.204zm7.383-4.922l-3.281-19.688-3.281 19.688h6.562zm-73.993-171.628c-82.843 0-150 67.157-150 150s67.157 150 150 150 150-67.157 150-150-67.157-150-150-150zm0 285c-74.559 0-135-60.441-135-135s60.441-135 135-135 135 60.441 135 135-60.441 135-135 135zm-4.263-204.206l.786-.624c.911-.84 1.611-1.698 2.549-2.845.731-1.167 1.846-1.985 2.782-3.131.703-.859 1.406-1.719 2.283-2.251.878-.535 2.217-1.364 3.139-2.126l.512-.428c-.071.088-.044.122.365-.106.604-.333 2.007 2.316 2.823 2.396 1.636.158 1.984 2.975 2.419 4.872.291 1.267.813 2.245 1.544 3.244l.363.511.068-.087c.604-.892 1.204-1.781 2.004-2.374.803-.595 1.204-.891 2.206-.297.803.594 1.603.89 2.405.297.603-.297 1.203-.891 2.006-.891 1.603 0 2.206 2.671 2.807 4.452.398 1.186 1.005 2.076 1.805 2.967 1.002 1.186.642 3.042 1.644 3.931.966 1.19 1.818 3.065 2.737 4.686-.196-.228-.451-.401-.689-.368-1.085-.069-.365.479-.758.749-.308.902-2.624-.293-3.103-.658l-.72-.549c-.424.058-.634.087-.875-.097-.509-.577.549-.718.703-1.171.365-.48.714-2.68-.005-3.228-.451-.154-.634.087-1.03.354-.365.48-.548.72-.971.776l-.845.115c-.423.058-.605.299-.819.327-.605.298-.844.115-1.535-.223-.902-.309-2.422 1.19-2.594-.08-.113-.844-.554-2.506.235-3.044-.393.27-.789.538-1.395.834l-1.058.144c-.605.296-1.182.806-1.605.862-.844.113-1.9.257-2.745.374-1.06.141-1.636.65-2.635 1.215-.368.482-1.029.354-1.66.44-.637.085-.819.325-1.215.595-.606.296-.451-.153-1.085-.069-.634.087-.155.451-.521.931-.393.27-.813.325-1.026.354-.424.057-.845.114-1.296-.04-.244-.183-.058-.422-.51-.577-.451-.152-1.057.144-1.27.173-.357.048-1.622 1.688-2.176 2.062l-.39-.017c-.786-.448-.415-3.191-.891-3.73-.831-1.395-1.639-2.577-3.357-2.559-.875-.097-1.904.257-2.48.765-.365.48-.8 2.045-1.76 1.314-.719-.548.139-2.171.476-2.861.094-.875.614-1.806.952-2.497.31-.902 1.068-1.652 1.885-1.978.169-.082.371-.137.576-.191l.03.084.186-.146c.364-.103.652-.264.729-.581zm58.889 32.811c1.201-1.188-6.377-2.235-6.377-4.907 0-.89-.199-2.669-.601-3.261-.401-.891-1.403-1.188-2.007-1.781-1.2-.593-2.003-1.483-3.204-2.373-.404-.594-.803-1.186-1.204-2.077-.604-.89-1.406-1.779-2.007-2.669-.8-.891-2.557-.116-3.359-1.005l-2.189-1.388c-.16-.235-.31-.512-.462-.771l.066.189c-.335.691-1.393.833-2.239.949-.844.114-1.508-.012-2.17-.14l-1.48.202-.423.057c-.098.013-.172.064-.247.122-.144.389-.027.867.053 1.461.022 2.014-2.822-.374-3.385-.801-.808-.394-.877-.891-1.652-1.038-.774-.146-1.799-.26-2.228.303-.708.346-.822 1.37-1.779 1.751-.709.348-1.45.449-2.441.582l-2.721.368-.99.134c-.459.316-.326 1.305-.756 1.868l-.969 2.146c-.183.527-.506 1.832-1.566 1.471-1.369-.82.949-4.16-.107-4.521-.427.562-.958.38-1.351 1.19-.18.53.056 2.261-.969 2.147-.279-.214-.349-.708-.664-1.169-.56-.429-1.058-.362-1.45.449l-.327 1.303-.723 2.115c-.359 1.057-.971 2.146-1.545 3.484-.179.528-.608 1.089-.508 1.832-.18.528-.081 1.271-1.038 1.653-1.234.166-1.256-1.846-1.392-2.836-.066-.496-.133-.99-.661-1.171-.247.032-.493.066-.775-.146-.249.035-.529-.179-.595-.677l-.202-1.485c-.063-.493.114-1.022.014-1.764l-1.157-1.104-1.868-.755-.662-1.171c-.562-.427-1.337-.574-1.832-.508-.742.101-1.666.729-2.474.335-.496.066-.811-.393-1.091-.607-.562-.428-1.09-.609-1.832-.509-1.303-.327-2.294-.194-3.88-.733-.496.065-.811-.396-1.337-.577l-2.081-.473-1.832-.509c-1.09-.607-1.935-1.25-2.563-2.172-.518-.647-1.375-.846-2.067-1.211-.548.554-1.104 1.117-1.63 1.631-.822.536-1.849 1.071-2.671 1.875-1.029 1.338-2.466 2.409-3.495 3.482-.822.804-1.437 1.605-2.054 2.41l-1.096 1.178.892-1.713c-.825 1.072-1.439 2.141-2.057 3.21-.617 1.071-1.439 1.876-1.644 2.947-.617 1.338-10.107 10.172-9.9 11.245.205 1.338 14.422-1.075 15.244-.271.615.267 2.768.706 3.416.515 1.209-.356 2.159-.67 2.906-.952.155 1.487-.313 3.283.459 3.482 2.056.537 4.11-.445 5.961-.445h5.037c-.017 0-.044.678-.039.719.083.617 2.554.786 5.455.523 1.976.968 4.453 3.405 6.252 2.98 1.151-.333 1.799-2.044 2.524-3.468.318.025.562.104.642.193.604.299 2.701.854 3.333.644l.642-.213c.689.378 1.439 1.021 2.208 1.689-.033 1.327-.049 2.187.436 2.331 2.004.592 4.011.602 5.814.602h8.82c2.007 0 5.272 3.725 7.476 3.133 1.805-.596 2.35-6.005 3.952-6.6 1.002-.591 1.604-1.092 2.407-1.686.598-.296 1.201-.546 1.802-1.14 1.204-.89 8.001.495 9.199-.098l.604-.286c1.005-.296-2.386-3.731-1.583-4.323 1.603-.594 12.588-2.21 13.994-3.396zm-79.679-21.402c-.011-.068-.022-.134.008-.222-.055-.422.578-.509 1.002-.564.42-.058.634-.087 1.237-.383l1.154-1.017c.758-.749 1.364-1.045 2.635-1.218.844-.113 1.691-.229 2.294-.526.789-.537.917-1.2 1.733-1.525.393-.27.816-.325 1.029-.354.576-.508.728-.959 1.093-1.439.551-.721 1.608-.863 2.184-1.373.365-.479.31-.902.703-1.171.155-.452.548-.719.943-.988.576-.509 1.392-.836 2.211-1.161.177-.025.628-.112 1.102-.155-.36-.854-.797-1.641-1.437-1.994l-1.981-3.793-2.064-.951-.62 2.083c-1.06.995-2.303 2.881-2.864 3.247-.822.537-1.439 1.341-2.057 2.144-.822 1.071-1.849 1.875-2.466 2.946-.822 1.073-1.439 1.875-2.261 2.679-1.232 1.072-2.671 2.142-3.902 3.481-.612.682-1.317 1.422-2.029 2.16l2.353.094zm-6.161-42.696c-.129-.578.014-1.105.428-1.583.415-.478.947-.789 1.598-.936.501-.111 1.025-.107 1.574.013.181.037.394.112.638.228l-.198.914c-.193-.091-.39-.164-.59-.219-.47-.129-.881-.155-1.232-.08-.38.085-.695.258-.948.52-.252.262-.339.567-.26.918.031.143.09.268.173.375.084.108.207.199.369.274l.373.175c.086.038.243.087.474.146l.383.104.584.168c.283.082.478.145.583.186l.472.182c.215.082.371.165.471.248l.343.312c.129.124.231.269.307.432s.136.349.183.557c.141.628-.003 1.213-.431 1.753-.428.541-.979.887-1.654 1.038-.562.126-1.141.091-1.733-.106-.261-.083-.501-.198-.722-.345l.2-.93c.25.139.491.25.725.332.549.206.995.271 1.338.194.436-.098.777-.308 1.027-.63s.331-.683.241-1.08c-.078-.351-.279-.635-.603-.854-.323-.219-.694-.381-1.113-.486l-1.254-.334c-.418-.117-.791-.297-1.12-.54-.331-.244-.539-.558-.626-.946zm7.57 4.725l-1.481-7.915 1.016-.19 1.481 7.915-1.016.19zm2.779-.537l-1.14-7.971 1.022-.146 4.893 5.693-.896-6.265 1.022-.146 1.14 7.971-1.022.146-4.894-5.698.896 6.27-1.021.146zm8.408-2.167c-.889-.755-1.379-1.705-1.473-2.85s.236-2.161.989-3.051c.754-.89 1.703-1.381 2.849-1.475.933-.076 1.806.146 2.618.665l-.611.72c-.619-.396-1.264-.566-1.936-.512-.869.071-1.585.456-2.147 1.155s-.807 1.503-.732 2.413c.075.909.446 1.663 1.115 2.262s1.438.861 2.307.791c.687-.057 1.296-.326 1.827-.809l.721.611c-.726.638-1.551.994-2.477 1.07-1.146.096-2.162-.235-3.05-.99zm6.966.57l-.201-8.05 5.131-.128.019.735-4.098.102.063 2.555 3.407-.085.019.735-3.407.085.082 3.289 4.098-.102.018.735-5.131.129zm9.514-7.384c.236-.158.478-.296.723-.412.599-.272 1.15-.396 1.654-.372.666.033 1.256.284 1.771.754.515.47.754 1.066.719 1.789-.045.919-.748 1.98-2.111 3.184l-1.586 1.411 3.556.173-.05 1.032-4.869-.237.051-1.032 2.346-2.109c1.051-.952 1.594-1.761 1.631-2.426.024-.512-.101-.911-.375-1.198-.275-.286-.656-.441-1.146-.466-.367-.018-.771.086-1.213.312-.165.078-.35.191-.557.338l-.544-.741zm6.894 6.714c-.478-.848-.653-1.873-.526-3.076.126-1.203.51-2.171 1.152-2.903s1.487-1.043 2.533-.934c1.027.107 1.77.583 2.227 1.427.455.843.62 1.87.493 3.081s-.499 2.181-1.118 2.91c-.619.729-1.445 1.039-2.477.931-1.045-.11-1.806-.589-2.284-1.436zm1.319-5.283c-.445.581-.718 1.353-.818 2.312-.1.96.008 1.771.325 2.432s.833 1.029 1.549 1.104c.701.073 1.264-.18 1.688-.76.424-.58.688-1.354.788-2.32.102-.967.005-1.778-.29-2.434s-.793-1.02-1.494-1.093c-.719-.075-1.302.177-1.748.759zm5.682 6.081c-.43-.873-.547-1.906-.354-3.101.192-1.194.631-2.14 1.312-2.835.684-.694 1.543-.958 2.58-.791 1.021.165 1.736.682 2.145 1.55.408.867.515 1.902.32 3.104-.194 1.202-.621 2.149-1.279 2.843s-1.5.957-2.525.792c-1.037-.169-1.77-.689-2.199-1.562zm1.613-5.202c-.478.556-.793 1.31-.947 2.263-.154.952-.092 1.768.188 2.445.28.679.774 1.074 1.485 1.189.695.112 1.271-.108 1.728-.664s.762-1.312.917-2.272c.155-.961.104-1.775-.154-2.446s-.734-1.062-1.43-1.175c-.714-.115-1.31.105-1.787.66zm5.365 6.396c-.379-.896-.438-1.935-.178-3.116.26-1.182.75-2.101 1.471-2.756s1.594-.87 2.621-.645c1.01.223 1.693.778 2.053 1.668.357.889.406 1.928.145 3.117-.262 1.188-.74 2.11-1.438 2.766s-1.552.871-2.565.647c-1.026-.225-1.73-.786-2.109-1.681zm1.905-5.103c-.508.528-.865 1.263-1.073 2.205s-.19 1.761.05 2.453c.241.692.713 1.116 1.416 1.271.688.152 1.275-.036 1.763-.565.486-.528.835-1.268 1.044-2.218.209-.949.203-1.767-.017-2.45-.22-.685-.673-1.103-1.362-1.254-.707-.155-1.313.031-1.821.558zm-89.295 191.109l.749.43-1.646 5.932.023.014 4.22-4.454.866.497-1.656 5.924.023.014 4.29-4.414.702.403-5.018 4.977-.878-.503 1.602-5.802-.023-.013-4.142 4.344-.877-.504 1.765-6.845zm8.443 4.792l.782.367-1.154 6.05.024.012 3.844-4.788.904.425-1.167 6.045.024.012 3.917-4.754.733.344-4.597 5.375-.917-.431 1.122-5.917-.024-.012-3.773 4.672-.917-.43 1.199-6.97zm8.815 4.091l.81.301-.648 6.122.025.009 3.431-5.088.937.348-.66 6.117.024.01 3.507-5.061.76.283-4.132 5.734-.949-.353.626-5.986-.024-.009-3.371 4.966-.949-.353.613-7.04zm7.28 8.748l.952.303-.311.977-.951-.301.31-.979zm5.34-3.569l.029-.006c.591-.525 1.316-.621 1.838-.48 2.059.561 1.583 2.361 1.35 3.222l-.399 1.473c-.464 1.707-1.323 2.552-3.004 2.095-.482-.131-.9-.497-1.135-1.232l-.022-.02-.878 3.231-.782-.212 2.464-9.07.756.205-.217.794zm-.81 3.083c-.407 1.499.076 2.399.793 2.594 1.29.351 1.779-.678 2.246-2.397.464-1.707.562-2.842-.728-3.193-.508-.137-1.55.195-1.992 1.824l-.319 1.172zm8.704 4.141l-.026-.006c-.558.544-1.272.722-2.091.547-1.188-.255-1.662-1.198-1.414-2.359.5-2.336 2.799-1.597 4.167-1.413l.119-.555c.209-.977.046-1.633-1.011-1.859-.726-.154-1.383.078-1.552.869l-.845-.18c.34-1.268 1.437-1.557 2.599-1.309.673.145 2.058.51 1.693 2.212l-.717 3.353c-.102.475-.192.897-.279 1.693l-.818-.175.175-.818zm.501-2.599c-1.144-.203-2.831-.702-3.179.922-.161.752.089 1.454.907 1.629.911.195 1.825-.465 2.012-1.336l.26-1.215zm3.377 4.164l-.8-.125 1.056-6.734.8.125-.129.827.026.004c.475-.499 1.058-.817 1.777-.705 1.667.261 1.646 1.528 1.508 2.409l-.744 4.748-.8-.126.738-4.708c.123-.787-.068-1.568-1.002-1.715-.721-.112-1.531.266-1.768 1.773l-.662 4.227zm9.539.386l-.027-.003c-.495.602-1.186.857-2.018.772-1.209-.122-1.784-1.008-1.664-2.189.24-2.376 2.605-1.894 3.986-1.862l.057-.564c.101-.993-.134-1.627-1.208-1.736-.738-.074-1.365.229-1.447 1.034l-.859-.087c.199-1.295 1.258-1.704 2.439-1.584.685.068 2.102.279 1.926 2.012l-.345 3.411c-.049.483-.092.913-.092 1.714l-.832-.084.084-.834zm.212-2.638c-1.158-.076-2.891-.387-3.058 1.265-.077.765.248 1.436 1.081 1.521.926.094 1.763-.664 1.852-1.55l.125-1.236zm4.055-2.127l.027.002c.373-.628 1.11-.992 1.932-.945l-.046.822c-1.141-.16-1.934.484-1.998 1.63l-.248 4.379-.809-.046.385-6.804.809.046-.052.916zm6.636 5.272h-.027c-.442.642-1.109.955-1.947.941-1.215-.019-1.863-.854-1.845-2.041.038-2.391 2.438-2.109 3.817-2.195l.009-.567c.016-.999-.271-1.612-1.352-1.629-.743-.012-1.343.343-1.355 1.153l-.864-.014c.088-1.309 1.109-1.806 2.298-1.787.688.012 2.119.102 2.091 1.844l-.054 3.43c-.008.486-.015.918.054 1.717l-.837-.014.012-.838zm-.012-2.647c-1.162.021-2.916-.141-2.941 1.52-.013.77.369 1.41 1.206 1.424.932.016 1.701-.811 1.715-1.701l.02-1.243zm3.131-5.27l-.027-1.025.998-.026.027 1.024-.998.027zm.331 8.711l-.185-6.812.809-.021.186 6.811-.81.022zm4.342-.147l-.808.065-.556-6.81.728-.06.068.848.027-.002c.277-.578.782-1.039 1.535-1.101.7-.058 1.352.282 1.635.937.281-.699.828-1.137 1.582-1.199 1.131-.092 1.787.641 1.916 1.727l.413 5.061-.808.066-.396-4.859c-.068-.671-.372-1.404-1.166-1.34-1.023.083-1.33 1.138-1.258 2.025l.357 4.375-.808.065-.396-4.858c-.068-.672-.372-1.406-1.166-1.341-1.022.083-1.329 1.138-1.257 2.026l.358 4.375zm9.114-6.94l.024-.017c.329-.719.954-1.101 1.487-1.181 2.109-.318 2.401 1.522 2.534 2.404l.228 1.508c.264 1.749-.182 2.868-1.904 3.128-.494.074-1.023-.091-1.535-.67l-.028-.009.499 3.311-.801.121-1.401-9.293.774-.117.123.815zm.502 3.147c.231 1.536 1.036 2.165 1.771 2.054 1.321-.199 1.354-1.338 1.089-3.1-.264-1.749-.631-2.827-1.953-2.627-.521.078-1.34.803-1.088 2.471l.181 1.202zm5.631-.762l-.297-1.44c-.358-1.731.172-2.901 1.73-3.224s2.51.542 2.867 2.273l.298 1.44c.358 1.731-.172 2.901-1.731 3.224-1.559.322-2.51-.543-2.867-2.273zm.642-.891c.361 1.744.785 2.801 2.094 2.529 1.309-.27 1.279-1.408.92-3.152-.358-1.73-.783-2.787-2.092-2.516-1.308.27-1.279 1.409-.922 3.139zm5.996-3.891l.025-.007c.168-.71.761-1.279 1.559-1.481l.203.797c-1.135.191-1.697 1.045-1.415 2.156l1.081 4.25-.785.199-1.68-6.604.785-.199.227.889zm2.44-.91l-.182-.623 1.05-.305-.392-1.348.679-.562.489 1.684 1.322-.384.181.622-1.321.384 1.221 4.197c.253.868.404 1.05 1.025.868.26-.075.438-.141.598-.216l.196.673c-.226.094-.481.183-.728.254-1.049.306-1.496-.07-1.729-.873l-1.361-4.677-1.048.306zm8.265 4.043c-1.394.469-2.172-.023-2.619-1.396l.78-.262c.297.882.699 1.4 1.685 1.07.741-.25.957-.793.716-1.509-.567-1.688-3.324-.276-4.042-2.411-.4-1.189.275-1.887 1.4-2.266 1.279-.431 1.985.314 2.316 1.299l-.754.254c-.314-.806-.678-1.167-1.547-.875-.551.186-.865.689-.671 1.266.542 1.611 3.298.199 4.025 2.36.411 1.214-.086 2.066-1.289 2.47zm3.556-2.497l.934-.354.364.959-.934.354-.364-.959zm4.452-5.934c-.295-.799-.812-1.225-1.671-.861-.46.194-.735.619-.702 1.147.021.328.311 1.218.663 2.051.479 1.132 1.116 2.637 2.272 2.147.982-.416.844-1.091.561-1.865l.746-.316c.777 1.666-.295 2.457-.879 2.704-2.127.9-2.838-.778-3.496-2.333-.264-.621-.654-1.615-.692-2.156-.056-1.031.517-1.655 1.374-2.019 1.082-.458 2.074-.159 2.57 1.186l-.746.315zm3.307.928l-.644-1.323c-.773-1.592-.548-2.857.886-3.555 1.433-.696 2.567-.092 3.342 1.499l.643 1.324c.773 1.591.549 2.856-.885 3.554s-2.569.092-3.342-1.499zm.404-1.022c.779 1.604 1.451 2.523 2.654 1.938 1.202-.585.895-1.681.115-3.284-.773-1.592-1.446-2.512-2.648-1.926-1.203.584-.894 1.681-.121 3.272zm7.918-.155l-.702.403-3.397-5.922.633-.363.422.737.023-.013c.006-.642.266-1.273.922-1.648.608-.35 1.342-.318 1.876.152-.043-.754.266-1.381.921-1.758.982-.563 1.887-.18 2.467.748l2.523 4.4-.701.402-2.424-4.225c-.348-.578-.935-1.113-1.625-.717-.89.51-.719 1.594-.275 2.367l2.182 3.803-.701.403-2.424-4.226c-.348-.578-.935-1.112-1.625-.717-.89.511-.719 1.595-.275 2.367l2.18 3.807z"/></svg>