<?xml version="1.0" encoding="utf-8"?>
<!-- Generator: Adobe Illustrator 16.2.1, SVG Export Plug-In . SVG Version: 6.00 Build 0)  -->
<!DOCTYPE svg PUBLIC "-//W3C//DTD SVG 1.1//EN" "http://www.w3.org/Graphics/SVG/1.1/DTD/svg11.dtd">
<svg version="1.1" xmlns="http://www.w3.org/2000/svg" xmlns:xlink="http://www.w3.org/1999/xlink" x="0px" y="0px" width="320px" height="320px" viewBox="0 0 320 320" enable-background="new 0 0 320 320" xml:space="preserve">
    <g>
        <path d="M160,10C77.157,10,10,77.157,10,160s67.157,150,150,150s150-67.157,150-150S242.843,10,160,10z M160,295c-74.559,0-135-60.441-135-135S85.441,25,160,25s135,60.441,135,135S234.559,295,160,295z"/>
        <path d="M155.009,91.375c-0.063,0.05-0.122,0.097-0.186,0.146c-0.011-0.028-0.022-0.057-0.03-0.084c-0.205,0.054-0.407,0.109-0.576,0.191c-0.816,0.325-1.575,1.075-1.885,1.978c-0.338,0.69-0.858,1.622-0.952,2.497c-0.337,0.69-1.195,2.313-0.476,2.861c0.96,0.731,1.395-0.834,1.76-1.314c0.576-0.508,1.605-0.862,2.48-0.765c1.718-0.018,2.526,1.164,3.357,2.559c0.476,0.54,0.105,3.282,0.891,3.73l0.39,0.017c0.554-0.374,1.818-2.013,2.176-2.062c0.213-0.029,0.818-0.325,1.27-0.173c0.452,0.155,0.266,0.395,0.51,0.577c0.451,0.154,0.872,0.097,1.296,0.04c0.213-0.029,0.634-0.084,1.026-0.354c0.365-0.48-0.113-0.844,0.521-0.931c0.634-0.084,0.479,0.365,1.085,0.069c0.396-0.27,0.578-0.509,1.215-0.595c0.631-0.086,1.292,0.042,1.66-0.44c0.999-0.564,1.575-1.074,2.635-1.215c0.845-0.116,1.901-0.26,2.745-0.374c0.424-0.057,1-0.566,1.605-0.862c0.421-0.057,0.634-0.085,1.058-0.144c0.605-0.296,1.002-0.565,1.395-0.834c-0.789,0.538-0.349,2.2-0.235,3.044c0.172,1.27,1.691-0.229,2.594,0.08c0.691,0.337,0.93,0.521,1.535,0.223c0.214-0.027,0.396-0.269,0.819-0.327c0.211-0.029,0.421-0.057,0.845-0.115c0.423-0.057,0.605-0.296,0.971-0.776c0.396-0.267,0.579-0.508,1.03-0.354c0.719,0.548,0.37,2.748,0.005,3.228c-0.154,0.453-1.212,0.594-0.703,1.171c0.241,0.184,0.451,0.155,0.875,0.097c0.238,0.183,0.481,0.367,0.72,0.549c0.479,0.364,2.795,1.56,3.103,0.658c0.393-0.27-0.327-0.818,0.758-0.749c0.238-0.033,0.493,0.14,0.689,0.368c-0.919-1.62-1.771-3.495-2.737-4.686c-1.002-0.89-0.642-2.745-1.644-3.931c-0.8-0.891-1.406-1.781-1.805-2.967c-0.601-1.781-1.204-4.452-2.807-4.452c-0.803,0-1.403,0.594-2.006,0.891c-0.803,0.592-1.603,0.296-2.405-0.297c-1.002-0.594-1.403-0.297-2.206,0.297c-0.8,0.592-1.4,1.482-2.004,2.374c-0.021,0.032-0.047,0.055-0.068,0.087c-0.122-0.177-0.232-0.321-0.363-0.511c-0.73-0.999-1.253-1.977-1.544-3.244c-0.435-1.897-0.783-4.714-2.419-4.872c-0.816-0.08-2.22-2.73-2.823-2.396c-0.409,0.228-0.437,0.195-0.365,0.106c-0.121,0.104-0.282,0.238-0.512,0.428c-0.922,0.762-2.261,1.591-3.139,2.126c-0.877,0.533-1.58,1.392-2.283,2.251c-0.936,1.146-2.051,1.965-2.782,3.131c-0.938,1.147-1.638,2.005-2.549,2.845c-0.249,0.205-0.523,0.417-0.786,0.624C155.66,91.111,155.372,91.272,155.009,91.375z"/>
        <path d="M214.626,123.605c1.201-1.188-6.377-2.235-6.377-4.907c0-0.89-0.199-2.669-0.601-3.261c-0.401-0.891-1.403-1.188-2.007-1.781c-1.2-0.593-2.003-1.483-3.204-2.373c-0.404-0.594-0.803-1.186-1.204-2.077c-0.604-0.89-1.406-1.779-2.007-2.669c-0.8-0.891-2.557-0.116-3.359-1.005c-0.601-0.594-1.586-0.794-2.189-1.388c-0.16-0.235-0.31-0.512-0.462-0.771c0.022,0.063,0.058,0.13,0.066,0.189c-0.335,0.691-1.393,0.833-2.239,0.949c-0.844,0.114-1.508-0.012-2.17-0.14c-0.423,0.058-1.057,0.146-1.48,0.202l-0.423,0.057c-0.098,0.013-0.172,0.064-0.247,0.122c-0.144,0.389-0.027,0.867,0.053,1.461c0.022,2.014-2.822-0.374-3.385-0.801c-0.808-0.394-0.877-0.891-1.652-1.038c-0.774-0.146-1.799-0.26-2.228,0.303c-0.708,0.346-0.822,1.37-1.779,1.751c-0.709,0.348-1.45,0.449-2.441,0.582c-0.738,0.101-1.732,0.234-2.721,0.368c-0.249,0.035-0.495,0.069-0.99,0.134c-0.459,0.316-0.326,1.305-0.756,1.868c-0.146,0.775-0.821,1.37-0.969,2.146c-0.183,0.527-0.506,1.832-1.566,1.471c-1.369-0.82,0.949-4.16-0.107-4.521c-0.427,0.562-0.958,0.38-1.351,1.19c-0.18,0.53,0.056,2.261-0.969,2.147c-0.279-0.214-0.349-0.708-0.664-1.169c-0.56-0.429-1.058-0.362-1.45,0.449c-0.214,0.279-0.113,1.022-0.327,1.303c-0.146,0.776-0.576,1.338-0.723,2.115c-0.359,1.057-0.971,2.146-1.545,3.484c-0.179,0.528-0.608,1.089-0.508,1.832c-0.18,0.528-0.081,1.271-1.038,1.653c-1.234,0.166-1.256-1.846-1.392-2.836c-0.066-0.496-0.133-0.99-0.661-1.171c-0.247,0.032-0.493,0.066-0.775-0.146c-0.249,0.035-0.529-0.179-0.595-0.677c-0.033-0.247-0.136-0.988-0.202-1.485c-0.063-0.493,0.114-1.022,0.014-1.764c-0.313-0.461-0.844-0.644-1.157-1.104c-0.564-0.427-1.303-0.328-1.868-0.755c-0.28-0.214-0.379-0.955-0.662-1.171c-0.562-0.427-1.337-0.574-1.832-0.508c-0.742,0.101-1.666,0.729-2.474,0.335c-0.496,0.066-0.811-0.393-1.091-0.607c-0.562-0.428-1.09-0.609-1.832-0.509c-1.303-0.327-2.294-0.194-3.88-0.733c-0.496,0.065-0.811-0.396-1.337-0.577c-0.778-0.146-1.306-0.327-2.081-0.473c-0.529-0.181-1.306-0.328-1.832-0.509c-1.09-0.607-1.935-1.25-2.563-2.172c-0.518-0.647-1.375-0.846-2.067-1.211c-0.548,0.554-1.104,1.117-1.63,1.631c-0.822,0.536-1.849,1.071-2.671,1.875c-1.029,1.338-2.466,2.409-3.495,3.482c-0.822,0.804-1.437,1.605-2.054,2.41c-0.617,0.804-0.481,0.375-1.096,1.178l0.892-1.713c-0.825,1.072-1.439,2.141-2.057,3.21c-0.617,1.071-1.439,1.876-1.644,2.947c-0.617,1.338-10.107,10.172-9.9,11.245c0.205,1.338,14.422-1.075,15.244-0.271c0.615,0.267,2.768,0.706,3.416,0.515c1.209-0.356,2.159-0.67,2.906-0.952c0.155,1.487-0.313,3.283,0.459,3.482c2.056,0.537,4.11-0.445,5.961-0.445c1.716,0,3.376,0,5.037,0c-0.017,0-0.044,0.678-0.039,0.719c0.083,0.617,2.554,0.786,5.455,0.523c1.976,0.968,4.453,3.405,6.252,2.98c1.151-0.333,1.799-2.044,2.524-3.468c0.318,0.025,0.562,0.104,0.642,0.193c0.604,0.299,2.701,0.854,3.333,0.644c0.229-0.078,0.429-0.14,0.642-0.213c0.689,0.378,1.439,1.021,2.208,1.689c-0.033,1.327-0.049,2.187,0.436,2.331c2.004,0.592,4.011,0.602,5.814,0.602c3.006,0,5.812,0,8.82,0c2.007,0,5.272,3.725,7.476,3.133c1.805-0.596,2.35-6.005,3.952-6.6c1.002-0.591,1.604-1.092,2.407-1.686c0.598-0.296,1.201-0.546,1.802-1.14c1.204-0.89,8.001,0.495,9.199-0.098c0.806-0.297,0,0.012,0.604-0.286c1.005-0.296-2.386-3.731-1.583-4.323C202.235,126.407,213.22,124.791,214.626,123.605z"/>
        <path d="M134.947,102.203c-0.011-0.068-0.022-0.134,0.008-0.222c-0.055-0.422,0.578-0.509,1.002-0.564c0.42-0.058,0.634-0.087,1.237-0.383c0.396-0.27,0.761-0.749,1.154-1.017c0.758-0.749,1.364-1.045,2.635-1.218c0.844-0.113,1.691-0.229,2.294-0.526c0.789-0.537,0.917-1.2,1.733-1.525c0.393-0.27,0.816-0.325,1.029-0.354c0.576-0.508,0.728-0.959,1.093-1.439c0.551-0.721,1.608-0.863,2.184-1.373c0.365-0.479,0.31-0.902,0.703-1.171c0.155-0.452,0.548-0.719,0.943-0.988c0.576-0.509,1.392-0.836,2.211-1.161c0.177-0.025,0.628-0.112,1.102-0.155c-0.36-0.854-0.797-1.641-1.437-1.994l-1.981-3.793l-2.064-0.951l-0.62,2.083c-1.06,0.995-2.303,2.881-2.864,3.247c-0.822,0.537-1.439,1.341-2.057,2.144c-0.822,1.071-1.849,1.875-2.466,2.946c-0.822,1.073-1.439,1.875-2.261,2.679c-1.232,1.072-2.671,2.142-3.902,3.481c-0.612,0.682-1.317,1.422-2.029,2.16L134.947,102.203z"/>

        <text transform="matrix(1 0 0 1 72.689 198.0342)" font-family="'Oswald'" font-size="52.5">PANARA</text>
        <text transform="matrix(1 0 0 1 68.625 220.3701)" font-family="'UniversLTStd-LightCn'" font-size="11.621">UNIQUE FASHIONS AND FABULOUS FINDS</text>

        <circle fill="none" cx="160" cy="187" r="125"/>
        <text transform="matrix(0.9755 -0.22 0.22 0.9755 129.3682 65.7422)" font-family="'Carme'" font-size="11.5">
            <tspan x="0" y="0">S</tspan>
            <tspan x="6.111" y="0.028" rotate="2.086">I</tspan>
            <tspan x="9.053" y="0.081" rotate="4.549">N</tspan>
            <tspan x="16.748" y="0.687" rotate="8.096">C</tspan>
            <tspan x="24.504" y="1.807" rotate="11.347">E</tspan>
            <tspan x="30.895" y="3.119" rotate="13.636"> </tspan>
            <tspan x="33.415" y="3.679" rotate="15.565">2</tspan>
            <tspan x="40.17" y="5.559" rotate="18.755">0</tspan>
            <tspan x="46.814" y="7.811" rotate="21.969">0</tspan>
            <tspan x="53.306" y="10.425" rotate="25.191">0</tspan>
        </text>

        <circle fill="none" cx="160" cy="149" r="125"/>
        <text transform="matrix(0.866 0.5001 -0.5001 0.866 93.6758 255.0703)" font-family="'UniversLTStd-LightCn'" font-size="13.5">
            <tspan x="0" y="0">w</tspan>
            <tspan x="10.266" y="-0.052" rotate="-4.717">w</tspan>
            <tspan x="20.506" y="-0.95" rotate="-9.456">w</tspan>
            <tspan x="30.205" y="-2.673" rotate="-12.619">.</tspan>
            <tspan x="33.728" y="-3.443" rotate="-14.977">p</tspan>
            <tspan x="40.344" y="-5.238" rotate="-18.14">a</tspan>
            <tspan x="46.835" y="-7.389" rotate="-21.287">n</tspan>
            <tspan x="53.189" y="-9.889" rotate="-24.412">a</tspan>
            <tspan x="59.242" y="-12.68" rotate="-26.936">r</tspan>
            <tspan x="63.053" y="-14.621" rotate="-29.079">a</tspan>
            <tspan x="68.914" y="-17.954" rotate="-31.731">i</tspan>
            <tspan x="72.211" y="-19.923" rotate="-34.834">m</tspan>
            <tspan x="80.405" y="-25.731" rotate="-38.74">p</tspan>
            <tspan x="85.723" y="-30.028" rotate="-41.887">o</tspan>
            <tspan x="90.68" y="-34.528" rotate="-44.459">r</tspan>
            <tspan x="93.72" y="-37.524" rotate="-46.43">t</tspan>
            <tspan x="96.747" y="-40.701" rotate="-48.803">s</tspan>
            <tspan x="100.566" y="-45.114" rotate="-50.978">.</tspan>
            <tspan x="102.833" y="-47.896" rotate="-53.154">c</tspan>
            <tspan x="106.446" y="-52.734" rotate="-56.106">o</tspan>
            <tspan x="110.392" y="-58.581" rotate="-60.037">m</tspan>
        </text>
    </g>
</svg>
