<?xml version="1.0" encoding="utf-8"?>
<!-- Generator: Adobe Illustrator 16.2.1, SVG Export Plug-In . SVG Version: 6.00 Build 0)  -->
<!DOCTYPE svg PUBLIC "-//W3C//DTD SVG 1.1//EN" "http://www.w3.org/Graphics/SVG/1.1/DTD/svg11.dtd">
<svg version="1.1" id="Layer_1" xmlns="http://www.w3.org/2000/svg" xmlns:xlink="http://www.w3.org/1999/xlink" x="0px" y="0px" width="320px" height="320px" viewBox="0 0 320 320" enable-background="new 0 0 320 320" xml:space="preserve">
    <g>
        <!-- www.panaraimports.com -->
        <path d="M98.822,249.32l0.717,0.406l-1.55,5.657l0.022,0.011l4.005-4.256l0.828,0.47l-1.558,5.651l0.019,0.012l4.077-4.218l0.667,0.382l-4.763,4.76l-0.836-0.481l1.505-5.529l-0.019-0.014L98,256.324l-0.839-0.479L98.822,249.32z
            M106.865,253.861l0.742,0.354l-1.104,5.762l0.022,0.012l3.667-4.562l0.861,0.41l-1.118,5.754l0.022,0.011l3.739-4.525l0.697,0.33l-4.384,5.117l-0.872-0.413l1.074-5.637l-0.025-0.012l-3.601,4.45l-0.872-0.412L106.865,253.861z
            M115.143,257.72l0.77,0.293l-0.648,5.823l0.022,0.011l3.291-4.826l0.891,0.335l-0.659,5.82l0.025,0.008l3.363-4.802l0.722,0.274l-3.963,5.438l-0.899-0.337l0.623-5.696l-0.022-0.011l-3.235,4.716l-0.9-0.343L115.143,257.72z
            M122.236,266.152l0.905,0.291l-0.304,0.93l-0.905-0.294L122.236,266.152z
            M127.633,262.861l0.03-0.005c0.559-0.498,1.251-0.587,1.744-0.448c1.959,0.536,1.502,2.252,1.278,3.071l-0.387,1.397c-0.448,1.625-1.268,2.428-2.867,1.984c-0.457-0.127-0.855-0.476-1.074-1.176l-0.022-0.02l-0.847,3.072l-0.745-0.205l2.375-8.624l0.723,0.2L127.633,262.861z M126.849,265.795c-0.39,1.423,0.067,2.286,0.748,2.475c1.226,0.338,1.694-0.643,2.147-2.275c0.446-1.627,0.545-2.706-0.684-3.044c-0.481-0.133-1.475,0.177-1.907,1.727L126.849,265.795z
            M135.216,269.794l-0.025-0.002c-0.532,0.512-1.215,0.678-1.993,0.509c-1.129-0.249-1.578-1.146-1.34-2.253c0.487-2.222,2.674-1.508,3.977-1.328l0.114-0.528c0.202-0.928,0.05-1.553-0.955-1.774c-0.689-0.149-1.32,0.066-1.48,0.822l-0.805-0.175c0.329-1.206,1.375-1.478,2.482-1.234c0.639,0.139,1.957,0.493,1.602,2.114l-0.694,3.188c-0.1,0.451-0.188,0.853-0.274,1.611l-0.781-0.172L135.216,269.794z M135.703,267.323c-1.087-0.199-2.693-0.681-3.03,0.863c-0.158,0.714,0.08,1.384,0.858,1.556c0.866,0.188,1.738-0.438,1.92-1.263L135.703,267.323z
            M139.032,271.344l-0.764-0.121l1.021-6.407l0.761,0.122l-0.127,0.786l0.025,0.005c0.451-0.473,1.01-0.774,1.696-0.667c1.583,0.252,1.561,1.459,1.428,2.295l-0.72,4.517l-0.758-0.119l0.708-4.48c0.122-0.747-0.058-1.489-0.946-1.633c-0.687-0.111-1.461,0.249-1.688,1.683L139.032,271.344z
            M148.323,271.795h-0.025c-0.476,0.57-1.135,0.809-1.929,0.726c-1.154-0.127-1.697-0.975-1.572-2.104c0.244-2.264,2.497-1.788,3.814-1.749l0.058-0.537c0.1-0.946-0.119-1.553-1.143-1.666c-0.706-0.072-1.307,0.211-1.39,0.979l-0.816-0.088c0.197-1.234,1.209-1.616,2.336-1.495c0.653,0.069,2.001,0.277,1.824,1.932l-0.349,3.25c-0.05,0.459-0.094,0.868-0.097,1.633l-0.797-0.086L148.323,271.795z M148.542,269.282c-1.104-0.077-2.751-0.388-2.923,1.185c-0.077,0.73,0.23,1.373,1.021,1.461c0.883,0.095,1.686-0.622,1.777-1.467L148.542,269.282z
            M152.574,267.317h0.025c0.36-0.592,1.063-0.936,1.843-0.886l-0.047,0.78c-1.083-0.154-1.843,0.451-1.91,1.539l-0.269,4.168l-0.767-0.05l0.407-6.471l0.772,0.05L152.574,267.317z
            M159.321,272.394h-0.028c-0.421,0.608-1.057,0.901-1.854,0.891c-1.16-0.022-1.774-0.819-1.752-1.954c0.044-2.277,2.328-2.001,3.643-2.078l0.014-0.54c0.014-0.952-0.257-1.538-1.284-1.555c-0.708-0.017-1.281,0.32-1.298,1.093l-0.825-0.017c0.094-1.248,1.065-1.719,2.197-1.693c0.659,0.011,2.021,0.103,1.99,1.763l-0.066,3.266c-0.008,0.465-0.017,0.877,0.047,1.636l-0.8-0.014L159.321,272.394z M159.318,269.869c-1.107,0.017-2.776-0.144-2.806,1.439c-0.017,0.73,0.343,1.345,1.143,1.361c0.889,0.017,1.625-0.77,1.642-1.616L159.318,269.869z
            M162.451,264.882l-0.021-0.977l0.949-0.02l0.02,0.974L162.451,264.882z M162.725,273.168l-0.143-6.479l0.77-0.02l0.143,6.479L162.725,273.168z
            M167.054,273.035l-0.769,0.061l-0.501-6.486l0.691-0.056l0.063,0.808h0.025c0.266-0.553,0.75-0.985,1.47-1.043c0.664-0.053,1.284,0.276,1.55,0.899c0.271-0.664,0.791-1.079,1.514-1.135c1.073-0.083,1.696,0.617,1.812,1.652l0.371,4.821l-0.767,0.058l-0.354-4.627c-0.066-0.64-0.349-1.34-1.107-1.281c-0.974,0.074-1.272,1.076-1.203,1.923l0.318,4.168l-0.77,0.056l-0.354-4.627c-0.061-0.637-0.349-1.34-1.104-1.279c-0.974,0.072-1.272,1.08-1.209,1.924L167.054,273.035z
            M175.824,266.459l0.02-0.016c0.318-0.682,0.916-1.038,1.423-1.113c2.006-0.293,2.274,1.462,2.396,2.297l0.208,1.439c0.243,1.663-0.188,2.724-1.827,2.961c-0.471,0.072-0.972-0.088-1.456-0.642l-0.027-0.011l0.457,3.152l-0.764,0.11l-1.279-8.843l0.733-0.11L175.824,266.459z M176.284,269.46c0.213,1.455,0.974,2.062,1.671,1.959c1.257-0.183,1.299-1.262,1.052-2.939c-0.24-1.666-0.584-2.695-1.84-2.513c-0.498,0.072-1.281,0.759-1.049,2.347L176.284,269.46z
            M181.771,268.729l-0.273-1.372c-0.329-1.649,0.183-2.763,1.672-3.062c1.485-0.299,2.386,0.531,2.715,2.182l0.273,1.378c0.332,1.649-0.18,2.762-1.669,3.061C183.001,271.211,182.104,270.381,181.771,268.729z M182.392,267.885c0.33,1.663,0.729,2.671,1.979,2.422c1.245-0.249,1.226-1.331,0.894-2.995c-0.329-1.654-0.728-2.662-1.974-2.413C182.04,265.147,182.06,266.232,182.392,267.885z
            M188.322,264.157l0.025-0.009c0.163-0.678,0.73-1.215,1.491-1.406l0.191,0.762c-1.082,0.177-1.625,0.99-1.358,2.054l1.01,4.057l-0.753,0.186l-1.569-6.308l0.75-0.188L188.322,264.157z
            M191.023,263.199l-0.168-0.592l1.001-0.288l-0.373-1.284l0.647-0.537l0.465,1.605l1.262-0.365l0.169,0.592l-1.256,0.365l1.153,4.002c0.241,0.83,0.385,1.002,0.978,0.83c0.249-0.071,0.418-0.135,0.57-0.204l0.186,0.642c-0.217,0.089-0.46,0.172-0.692,0.241c-0.999,0.29-1.428-0.069-1.649-0.836l-1.29-4.459L191.023,263.199z
            M199.11,267.002c-1.325,0.448-2.067-0.022-2.49-1.328l0.741-0.249c0.282,0.838,0.664,1.334,1.603,1.019c0.706-0.235,0.91-0.753,0.684-1.434c-0.537-1.608-3.166-0.267-3.847-2.303c-0.382-1.13,0.263-1.794,1.337-2.153c1.218-0.41,1.887,0.299,2.205,1.239l-0.722,0.238c-0.297-0.767-0.643-1.112-1.47-0.833c-0.523,0.175-0.825,0.656-0.64,1.204c0.515,1.533,3.139,0.193,3.833,2.253C200.729,265.812,200.257,266.62,199.11,267.002z
            M202.825,264.522l0.888-0.338l0.349,0.913l-0.888,0.338L202.825,264.522z
            M207.358,258.758c-0.277-0.762-0.772-1.166-1.589-0.816c-0.438,0.185-0.697,0.592-0.667,1.09c0.022,0.315,0.299,1.16,0.634,1.951c0.456,1.076,1.068,2.508,2.164,2.04c0.938-0.398,0.803-1.041,0.528-1.777l0.714-0.299c0.742,1.583-0.279,2.336-0.833,2.574c-2.02,0.857-2.701-0.736-3.329-2.214c-0.252-0.593-0.625-1.539-0.661-2.049c-0.053-0.984,0.487-1.577,1.304-1.926c1.026-0.438,1.973-0.155,2.446,1.124L207.358,258.758z
            M210.698,259.562l-0.608-1.262c-0.736-1.517-0.521-2.724,0.85-3.382c1.361-0.661,2.443-0.083,3.177,1.434l0.611,1.259c0.731,1.514,0.516,2.721-0.85,3.38C212.514,261.655,211.435,261.074,210.698,259.562z M211.086,258.589c0.739,1.527,1.378,2.402,2.524,1.849c1.143-0.554,0.852-1.6,0.11-3.128c-0.73-1.514-1.37-2.391-2.516-1.837C210.062,256.028,210.353,257.072,211.086,258.589z
            M218.628,258.444l-0.67,0.382l-3.228-5.656l0.606-0.344l0.401,0.703l0.022-0.011c0.005-0.614,0.257-1.212,0.885-1.572c0.579-0.329,1.276-0.299,1.788,0.152c-0.039-0.717,0.255-1.314,0.883-1.675c0.936-0.536,1.799-0.166,2.347,0.72l2.395,4.204l-0.667,0.382l-2.3-4.038c-0.332-0.548-0.889-1.062-1.55-0.686c-0.85,0.486-0.689,1.519-0.269,2.258l2.07,3.631l-0.67,0.382l-2.303-4.035c-0.329-0.553-0.883-1.062-1.544-0.686c-0.85,0.481-0.689,1.517-0.269,2.255L218.628,258.444z"/>
        <!-- PANARA -->
        <path d="M90.987,152.237c2.031,0,3.767,0.296,5.206,0.889c1.439,0.592,2.615,1.447,3.528,2.564c0.914,1.117,1.583,2.48,2.004,4.086c0.423,1.609,0.636,3.427,0.636,5.458c0,2.031-0.288,3.767-0.863,5.206c-0.576,1.437-1.37,2.615-2.386,3.528s-2.217,1.583-3.606,2.004c-1.387,0.426-2.892,0.637-4.52,0.637h-4.874v21.122h-6.498v-45.494H90.987z M87.738,171.731c1.625,0,2.961-0.107,4.013-0.326c1.049-0.222,1.876-0.587,2.488-1.094c0.609-0.506,1.03-1.176,1.268-2.006s0.357-1.854,0.357-3.072s-0.044-2.326-0.127-3.325c-0.085-0.998-0.382-1.853-0.888-2.562c-0.509-0.711-1.312-1.261-2.413-1.651c-1.099-0.389-2.666-0.584-4.697-0.584h-1.625v14.621H87.738z
            M110.994,186.355l-2.438,11.375h-6.498l9.748-45.494h6.501l9.747,45.494h-6.498l-2.438-11.375H110.994zM118.306,181.481l-3.252-19.496l-3.249,19.496H118.306z
            M150.899,197.73l-11.626-30.261v30.261h-6.498v-45.494h4.874l11.375,28.129v-28.129h6.498v45.494H150.899z
            M169.18,186.355l-2.438,11.375h-6.499l9.748-45.494h6.501l9.748,45.494h-6.499l-2.438-11.375H169.18zM176.491,181.481l-3.252-19.496l-3.249,19.496H176.491z
            M208.883,197.73l-6.551-21.122h-4.874v21.122h-6.498v-45.494h8.123c2.845,0,5.206,0.292,7.085,0.876c1.876,0.584,3.374,1.409,4.491,2.474c1.118,1.067,1.904,2.349,2.361,3.847c0.456,1.497,0.687,3.161,0.687,4.989c0,1.812-0.191,3.337-0.573,4.58c-0.379,1.245-0.857,2.277-1.434,3.1c-0.575,0.819-1.192,1.456-1.852,1.904c-0.661,0.448-1.271,0.774-1.829,0.974l7.312,22.75H208.883z M197.458,171.731h1.625c1.221,0,2.327-0.11,3.326-0.34c0.999-0.23,1.854-0.623,2.563-1.182c0.711-0.56,1.262-1.307,1.652-2.248c0.387-0.938,0.584-2.119,0.584-3.539c0-1.423-0.197-2.604-0.584-3.543c-0.391-0.938-0.941-1.687-1.652-2.246c-0.709-0.559-1.564-0.952-2.563-1.18c-0.999-0.229-2.105-0.343-3.326-0.343h-1.625V171.731z
            M226.83,186.355l-2.438,11.375h-6.499l9.748-45.494h6.501l9.747,45.494h-6.498l-2.438-11.375H226.83zM234.143,181.481l-3.252-19.496l-3.249,19.496H234.143z"/>
        <!-- SINCE -->
        <path d="M131.255,59.347c-0.127-0.563,0.008-1.078,0.41-1.544c0.404-0.465,0.921-0.771,1.555-0.915c0.484-0.112,0.997-0.109,1.533,0.007c0.172,0.036,0.379,0.109,0.62,0.22l-0.191,0.89c-0.191-0.088-0.379-0.158-0.573-0.211c-0.462-0.123-0.858-0.148-1.204-0.073c-0.368,0.083-0.672,0.253-0.916,0.509c-0.247,0.254-0.33,0.553-0.252,0.894c0.03,0.139,0.086,0.26,0.169,0.364c0.083,0.106,0.202,0.193,0.362,0.264l0.36,0.17c0.086,0.038,0.235,0.086,0.462,0.143c0.224,0.057,0.349,0.09,0.374,0.1l0.567,0.161c0.277,0.081,0.468,0.141,0.57,0.18l0.459,0.175c0.208,0.079,0.363,0.161,0.459,0.241c0.094,0.079,0.208,0.181,0.335,0.3c0.125,0.12,0.221,0.26,0.299,0.419c0.072,0.159,0.133,0.34,0.177,0.542c0.141,0.609,0.002,1.181-0.41,1.708c-0.415,0.526-0.952,0.865-1.608,1.015c-0.551,0.125-1.11,0.091-1.688-0.099c-0.257-0.079-0.487-0.192-0.703-0.332l0.191-0.906c0.241,0.136,0.479,0.242,0.706,0.321c0.537,0.2,0.969,0.26,1.304,0.184c0.42-0.095,0.758-0.3,0.999-0.614c0.244-0.314,0.318-0.667,0.227-1.053c-0.072-0.34-0.271-0.617-0.587-0.829c-0.315-0.213-0.675-0.37-1.085-0.472l-1.22-0.32c-0.41-0.112-0.772-0.287-1.093-0.522C131.543,60.028,131.341,59.723,131.255,59.347z
            M138.678,63.911l-1.464-7.699l0.985-0.188l1.467,7.699L138.678,63.911z
            M141.393,63.382l-1.132-7.757l0.997-0.144l4.779,5.528l-0.888-6.097l0.991-0.144l1.135,7.756l-0.994,0.146l-4.779-5.534l0.885,6.1L141.393,63.382z
            M149.535,61.25c-0.866-0.732-1.351-1.655-1.442-2.769c-0.094-1.114,0.224-2.103,0.955-2.972c0.73-0.866,1.655-1.348,2.771-1.442c0.905-0.078,1.754,0.137,2.549,0.639l-0.595,0.703c-0.601-0.385-1.229-0.548-1.882-0.493c-0.85,0.072-1.544,0.448-2.089,1.13c-0.548,0.681-0.781,1.466-0.706,2.35c0.072,0.887,0.438,1.618,1.091,2.199c0.656,0.58,1.4,0.834,2.25,0.762c0.667-0.057,1.256-0.32,1.774-0.79l0.703,0.592c-0.703,0.623-1.508,0.973-2.405,1.049C151.389,62.303,150.398,61.983,149.535,61.25z
            M156.337,61.785l-0.208-7.832l4.993-0.133l0.016,0.716l-3.985,0.104l0.064,2.485l3.318-0.086l0.017,0.714l-3.315,0.088l0.088,3.202l3.985-0.106l0.018,0.715L156.337,61.785z"/>
        <!-- 2000 -->
        <path d="M165.665,54.592c0.229-0.154,0.462-0.288,0.7-0.4c0.581-0.266,1.123-0.386,1.61-0.363c0.647,0.032,1.224,0.277,1.725,0.733c0.501,0.458,0.736,1.04,0.7,1.742c-0.045,0.896-0.731,1.926-2.054,3.099l-1.547,1.373l3.462,0.17l-0.05,1.005l-4.738-0.232l0.05-1.005l2.28-2.053c1.024-0.927,1.553-1.715,1.589-2.361c0.025-0.498-0.097-0.886-0.365-1.168c-0.263-0.277-0.637-0.429-1.115-0.451c-0.357-0.017-0.75,0.083-1.182,0.303c-0.161,0.076-0.341,0.184-0.54,0.328L165.665,54.592z
            M172.31,61.125c-0.462-0.826-0.631-1.824-0.512-2.996c0.124-1.17,0.495-2.111,1.121-2.825c0.625-0.713,1.45-1.015,2.463-0.908c1.005,0.103,1.724,0.567,2.17,1.387c0.442,0.822,0.603,1.821,0.481,2.999c-0.125,1.181-0.487,2.123-1.088,2.833c-0.604,0.711-1.406,1.013-2.41,0.908C173.517,62.415,172.774,61.948,172.31,61.125zM173.594,55.981c-0.432,0.567-0.697,1.316-0.794,2.25c-0.1,0.936,0.008,1.724,0.315,2.368c0.307,0.644,0.811,1.002,1.505,1.072c0.687,0.074,1.232-0.173,1.645-0.739c0.415-0.564,0.67-1.316,0.77-2.258c0.1-0.941,0.003-1.731-0.285-2.369c-0.288-0.636-0.772-0.991-1.453-1.062C174.596,55.17,174.028,55.416,173.594,55.981z
            M179.165,61.907c-0.421-0.85-0.54-1.854-0.354-3.018c0.191-1.162,0.611-2.084,1.273-2.76c0.667-0.68,1.503-0.937,2.513-0.775c0.993,0.158,1.691,0.66,2.09,1.502s0.503,1.852,0.315,3.022c-0.186,1.169-0.601,2.092-1.237,2.768c-0.64,0.678-1.459,0.934-2.455,0.775C180.297,63.26,179.583,62.755,179.165,61.907zM180.723,56.839c-0.462,0.544-0.769,1.277-0.916,2.206c-0.149,0.925-0.086,1.72,0.188,2.378c0.271,0.66,0.759,1.045,1.447,1.156c0.676,0.108,1.234-0.108,1.68-0.649c0.44-0.541,0.739-1.28,0.886-2.215c0.152-0.934,0.1-1.727-0.152-2.38c-0.251-0.652-0.719-1.032-1.395-1.14C181.764,56.084,181.188,56.3,180.723,56.839z
            M186.004,63.066c-0.374-0.872-0.432-1.883-0.183-3.033c0.251-1.151,0.728-2.045,1.428-2.686c0.7-0.636,1.55-0.85,2.549-0.631c0.985,0.216,1.649,0.755,2.001,1.619c0.352,0.866,0.401,1.876,0.149,3.035c-0.258,1.158-0.72,2.055-1.395,2.695c-0.679,0.638-1.512,0.85-2.497,0.634C187.056,64.482,186.372,63.936,186.004,63.066zM187.844,58.096c-0.492,0.515-0.839,1.23-1.038,2.148c-0.201,0.919-0.185,1.714,0.05,2.388c0.235,0.675,0.7,1.085,1.384,1.234c0.667,0.146,1.24-0.039,1.714-0.553c0.473-0.515,0.811-1.234,1.013-2.16c0.199-0.924,0.193-1.72-0.02-2.386c-0.216-0.664-0.658-1.071-1.331-1.216C188.929,57.4,188.337,57.583,187.844,58.096z"/>
        <!-- ∆∆∆ -->
        <path d="M155.009,91.375c-0.063,0.05-0.122,0.097-0.186,0.146c-0.011-0.028-0.022-0.057-0.03-0.084c-0.205,0.054-0.407,0.109-0.576,0.191c-0.816,0.325-1.575,1.075-1.885,1.978c-0.338,0.69-0.858,1.622-0.952,2.497c-0.337,0.69-1.195,2.313-0.476,2.861c0.96,0.731,1.395-0.834,1.76-1.314c0.576-0.508,1.605-0.862,2.48-0.765c1.718-0.018,2.526,1.164,3.357,2.559c0.476,0.54,0.105,3.282,0.891,3.73l0.39,0.017c0.554-0.374,1.818-2.013,2.176-2.062c0.213-0.029,0.818-0.325,1.27-0.173c0.452,0.155,0.266,0.395,0.51,0.577c0.451,0.154,0.872,0.097,1.296,0.04c0.213-0.029,0.634-0.084,1.026-0.354c0.365-0.48-0.113-0.844,0.521-0.931c0.634-0.084,0.479,0.365,1.085,0.069c0.396-0.27,0.578-0.509,1.215-0.595c0.631-0.086,1.292,0.042,1.66-0.44c0.999-0.564,1.575-1.074,2.635-1.215c0.845-0.116,1.901-0.26,2.745-0.374c0.424-0.057,1-0.566,1.605-0.862c0.421-0.057,0.634-0.085,1.058-0.144c0.605-0.296,1.002-0.565,1.395-0.834c-0.789,0.538-0.349,2.2-0.235,3.044c0.172,1.27,1.691-0.229,2.594,0.08c0.691,0.337,0.93,0.521,1.535,0.223c0.214-0.027,0.396-0.269,0.819-0.327c0.211-0.029,0.421-0.057,0.845-0.115c0.423-0.057,0.605-0.296,0.971-0.776c0.396-0.267,0.579-0.508,1.03-0.354c0.719,0.548,0.37,2.748,0.005,3.228c-0.154,0.453-1.212,0.594-0.703,1.171c0.241,0.184,0.451,0.155,0.875,0.097c0.238,0.183,0.481,0.367,0.72,0.549c0.479,0.364,2.795,1.56,3.103,0.658c0.393-0.27-0.327-0.818,0.758-0.749c0.238-0.033,0.493,0.14,0.689,0.368c-0.919-1.62-1.771-3.495-2.737-4.686c-1.002-0.89-0.642-2.745-1.644-3.931c-0.8-0.891-1.406-1.781-1.805-2.967c-0.601-1.781-1.204-4.452-2.807-4.452c-0.803,0-1.403,0.594-2.006,0.891c-0.803,0.592-1.603,0.296-2.405-0.297c-1.002-0.594-1.403-0.297-2.206,0.297c-0.8,0.592-1.4,1.482-2.004,2.374c-0.021,0.032-0.047,0.055-0.068,0.087c-0.122-0.177-0.232-0.321-0.363-0.511c-0.73-0.999-1.253-1.977-1.544-3.244c-0.435-1.897-0.783-4.714-2.419-4.872c-0.816-0.08-2.22-2.73-2.823-2.396c-0.409,0.228-0.437,0.195-0.365,0.106c-0.121,0.104-0.282,0.238-0.512,0.428c-0.922,0.762-2.261,1.591-3.139,2.126c-0.877,0.533-1.58,1.392-2.283,2.251c-0.936,1.146-2.051,1.965-2.782,3.131c-0.938,1.147-1.638,2.005-2.549,2.845c-0.249,0.205-0.523,0.417-0.786,0.624C155.66,91.111,155.372,91.272,155.009,91.375z
            M214.626,123.605c1.201-1.188-6.377-2.235-6.377-4.907c0-0.89-0.199-2.669-0.601-3.261c-0.401-0.891-1.403-1.188-2.007-1.781c-1.2-0.593-2.003-1.483-3.204-2.373c-0.404-0.594-0.803-1.186-1.204-2.077c-0.604-0.89-1.406-1.779-2.007-2.669c-0.8-0.891-2.557-0.116-3.359-1.005c-0.601-0.594-1.586-0.794-2.189-1.388c-0.16-0.235-0.31-0.512-0.462-0.771c0.022,0.063,0.058,0.13,0.066,0.189c-0.335,0.691-1.393,0.833-2.239,0.949c-0.844,0.114-1.508-0.012-2.17-0.14c-0.423,0.058-1.057,0.146-1.48,0.202l-0.423,0.057c-0.098,0.013-0.172,0.064-0.247,0.122c-0.144,0.389-0.027,0.867,0.053,1.461c0.022,2.014-2.822-0.374-3.385-0.801c-0.808-0.394-0.877-0.891-1.652-1.038c-0.774-0.146-1.799-0.26-2.228,0.303c-0.708,0.346-0.822,1.37-1.779,1.751c-0.709,0.348-1.45,0.449-2.441,0.582c-0.738,0.101-1.732,0.234-2.721,0.368c-0.249,0.035-0.495,0.069-0.99,0.134c-0.459,0.316-0.326,1.305-0.756,1.868c-0.146,0.775-0.821,1.37-0.969,2.146c-0.183,0.527-0.506,1.832-1.566,1.471c-1.369-0.82,0.949-4.16-0.107-4.521c-0.427,0.562-0.958,0.38-1.351,1.19c-0.18,0.53,0.056,2.261-0.969,2.147c-0.279-0.214-0.349-0.708-0.664-1.169c-0.56-0.429-1.058-0.362-1.45,0.449c-0.214,0.279-0.113,1.022-0.327,1.303c-0.146,0.776-0.576,1.338-0.723,2.115c-0.359,1.057-0.971,2.146-1.545,3.484c-0.179,0.528-0.608,1.089-0.508,1.832c-0.18,0.528-0.081,1.271-1.038,1.653c-1.234,0.166-1.256-1.846-1.392-2.836c-0.066-0.496-0.133-0.99-0.661-1.171c-0.247,0.032-0.493,0.066-0.775-0.146c-0.249,0.035-0.529-0.179-0.595-0.677c-0.033-0.247-0.136-0.988-0.202-1.485c-0.063-0.493,0.114-1.022,0.014-1.764c-0.313-0.461-0.844-0.644-1.157-1.104c-0.564-0.427-1.303-0.328-1.868-0.755c-0.28-0.214-0.379-0.955-0.662-1.171c-0.562-0.427-1.337-0.574-1.832-0.508c-0.742,0.101-1.666,0.729-2.474,0.335c-0.496,0.066-0.811-0.393-1.091-0.607c-0.562-0.428-1.09-0.609-1.832-0.509c-1.303-0.327-2.294-0.194-3.88-0.733c-0.496,0.065-0.811-0.396-1.337-0.577c-0.778-0.146-1.306-0.327-2.081-0.473c-0.529-0.181-1.306-0.328-1.832-0.509c-1.09-0.607-1.935-1.25-2.563-2.172c-0.518-0.647-1.375-0.846-2.067-1.211c-0.548,0.554-1.104,1.117-1.63,1.631c-0.822,0.536-1.849,1.071-2.671,1.875c-1.029,1.338-2.466,2.409-3.495,3.482c-0.822,0.804-1.437,1.605-2.054,2.41c-0.617,0.804-0.481,0.375-1.096,1.178l0.892-1.713c-0.825,1.072-1.439,2.141-2.057,3.21c-0.617,1.071-1.439,1.876-1.644,2.947c-0.617,1.338-10.107,10.172-9.9,11.245c0.205,1.338,14.422-1.075,15.244-0.271c0.615,0.267,2.768,0.706,3.416,0.515c1.209-0.356,2.159-0.67,2.906-0.952c0.155,1.487-0.313,3.283,0.459,3.482c2.056,0.537,4.11-0.445,5.961-0.445c1.716,0,3.376,0,5.037,0c-0.017,0-0.044,0.678-0.039,0.719c0.083,0.617,2.554,0.786,5.455,0.523c1.976,0.968,4.453,3.405,6.252,2.98c1.151-0.333,1.799-2.044,2.524-3.468c0.318,0.025,0.562,0.104,0.642,0.193c0.604,0.299,2.701,0.854,3.333,0.644c0.229-0.078,0.429-0.14,0.642-0.213c0.689,0.378,1.439,1.021,2.208,1.689c-0.033,1.327-0.049,2.187,0.436,2.331c2.004,0.592,4.011,0.602,5.814,0.602c3.006,0,5.812,0,8.82,0c2.007,0,5.272,3.725,7.476,3.133c1.805-0.596,2.35-6.005,3.952-6.6c1.002-0.591,1.604-1.092,2.407-1.686c0.598-0.296,1.201-0.546,1.802-1.14c1.204-0.89,8.001,0.495,9.199-0.098c0.806-0.297,0,0.012,0.604-0.286c1.005-0.296-2.386-3.731-1.583-4.323C202.235,126.407,213.22,124.791,214.626,123.605z
            M134.947,102.203c-0.011-0.068-0.022-0.134,0.008-0.222c-0.055-0.422,0.578-0.509,1.002-0.564c0.42-0.058,0.634-0.087,1.237-0.383c0.396-0.27,0.761-0.749,1.154-1.017c0.758-0.749,1.364-1.045,2.635-1.218c0.844-0.113,1.691-0.229,2.294-0.526c0.789-0.537,0.917-1.2,1.733-1.525c0.393-0.27,0.816-0.325,1.029-0.354c0.576-0.508,0.728-0.959,1.093-1.439c0.551-0.721,1.608-0.863,2.184-1.373c0.365-0.479,0.31-0.902,0.703-1.171c0.155-0.452,0.548-0.719,0.943-0.988c0.576-0.509,1.392-0.836,2.211-1.161c0.177-0.025,0.628-0.112,1.102-0.155c-0.36-0.854-0.797-1.641-1.437-1.994l-1.981-3.793l-2.064-0.951l-0.62,2.083c-1.06,0.995-2.303,2.881-2.864,3.247c-0.822,0.537-1.439,1.341-2.057,2.144c-0.822,1.071-1.849,1.875-2.466,2.946c-0.822,1.073-1.439,1.875-2.261,2.679c-1.232,1.072-2.671,2.142-3.902,3.481c-0.612,0.682-1.317,1.422-2.029,2.16L134.947,102.203z"/>
        <!-- OUTLINE -->
        <path d="M159.999,309.999C77.291,309.999,10,242.708,10,160C10,77.291,77.291,10,159.999,10c82.712,0,150.002,67.291,150.002,150C310.001,242.708,242.711,309.999,159.999,309.999z M159.999,24.17C85.104,24.17,24.17,85.103,24.17,160c0,74.896,60.934,135.829,135.829,135.829c74.898,0,135.832-60.934,135.832-135.829C295.831,85.103,234.897,24.17,159.999,24.17z"/>
        <!-- UNIQUE -->
        <path d="M74.382,216.965c0,1.085,0,2.635,1.699,2.635c1.696,0,1.696-1.55,1.696-2.635v-5.242h0.739v5.784c0,2.147-1.132,2.715-2.435,2.715c-1.307,0-2.436-0.567-2.436-2.715v-5.784h0.736V216.965z
            M80.168,220.059v-8.336H81.3l3.382,7.323l0.025-0.025v-7.298h0.738v8.336h-1.121l-3.396-7.4l-0.022,0.022v7.378H80.168z
            M87.976,211.723v8.336h-0.742v-8.336H87.976z
            M92.094,211.562c2.712,0,2.516,2.712,2.516,4.328c0,2.184-0.175,3.017-0.95,3.523l0.025,0.021h1.453v0.623h-1.591c-0.174,0-0.335,0.011-0.496,0.025c-0.174,0.011-0.359,0.021-0.603,0.021c-2.862,0-2.873-1.569-2.873-4.215C89.576,214.274,89.379,211.562,92.094,211.562z M93.871,215.891c0-2.101,0.022-3.703-1.777-3.703c-1.804,0-1.779,1.603-1.779,3.703c0,2.402,0.161,3.593,1.779,3.593C93.661,219.483,93.871,218.005,93.871,215.891z
            M96.805,216.965c0,1.085,0,2.635,1.699,2.635c1.694,0,1.694-1.55,1.694-2.635v-5.242h0.742v5.784c0,2.147-1.135,2.715-2.436,2.715c-1.306,0-2.438-0.567-2.438-2.715v-5.784h0.739V216.965z
            M106.342,211.723v0.626h-3.033v3.116h2.895v0.625h-2.895v3.346h3.116v0.623h-3.858v-8.336H106.342z"/>
        <!-- FASHIONS -->
        <path d="M110.161,211.723h3.523v0.626h-2.781v3.116h2.585v0.625h-2.585v3.969h-0.742V211.723z
            M117.29,211.723l2.599,8.336h-0.772l-0.669-2.191h-3.269l-0.659,2.191h-0.739l2.635-8.336H117.29z M118.25,217.241l-1.419-4.71h-0.022l-1.411,4.71H118.25z
            M124.406,213.837c-0.025-1.029-0.277-1.649-1.409-1.649c-0.902,0-1.467,0.311-1.467,1.29c0,1.237,0.625,1.273,1.572,1.954c1.027,0.736,2.076,0.957,2.076,2.573c0,1.489-0.761,2.217-2.214,2.217c-1.63,0-2.358-0.877-2.286-2.504h0.761c0,0.924,0.069,1.882,1.558,1.882c0.968,0,1.444-0.521,1.444-1.479c0-1.132-0.752-1.455-1.954-2.194c-1.616-0.993-1.683-1.489-1.697-2.322c-0.011-1.441,0.899-2.042,2.264-2.042c1.729,0,2.101,1.073,2.101,2.274H124.406z
            M126.633,220.059v-8.336h0.742v3.742h3.277v-3.742h0.739v8.336h-0.739v-3.969h-3.277v3.969H126.633z
            M133.862,211.723v8.336h-0.736v-8.336H133.862z
            M137.983,211.562c2.493,0,2.516,2.078,2.516,4.328c0,2.253-0.022,4.331-2.516,4.331c-2.494,0-2.516-2.078-2.516-4.331C135.467,213.641,135.49,211.562,137.983,211.562z M137.983,219.6c1.754,0,1.776-1.489,1.776-3.709c0-2.214-0.022-3.703-1.776-3.703c-1.758,0-1.78,1.489-1.78,3.703C136.204,218.11,136.226,219.6,137.983,219.6z
            M142.071,220.059v-8.336h1.132l3.385,7.323l0.022-0.025v-7.298h0.739v8.336h-1.121l-3.393-7.4l-0.025,0.022v7.378H142.071z
            M152.59,213.837c-0.025-1.029-0.277-1.649-1.409-1.649c-0.902,0-1.467,0.311-1.467,1.29c0,1.237,0.625,1.273,1.572,1.954c1.027,0.736,2.076,0.957,2.076,2.573c0,1.489-0.761,2.217-2.214,2.217c-1.63,0-2.358-0.877-2.286-2.504h0.761c0,0.924,0.069,1.882,1.558,1.882c0.969,0,1.445-0.521,1.445-1.479c0-1.132-0.753-1.455-1.954-2.194c-1.616-0.993-1.683-1.489-1.696-2.322c-0.011-1.441,0.899-2.042,2.264-2.042c1.73,0,2.101,1.073,2.101,2.274H152.59z"/>
        <!-- AND -->
        <path d="M160.209,211.723l2.595,8.336h-0.773l-0.67-2.191h-3.266l-0.659,2.191h-0.739l2.632-8.336H160.209z M161.168,217.241l-1.423-4.71h-0.022l-1.406,4.71H161.168z
            M163.847,220.059v-8.336h1.132l3.385,7.323l0.022-0.025v-7.298h0.738v8.336h-1.121l-3.393-7.4l-0.025,0.022v7.378H163.847z
            M170.868,211.723h2.205c2.33,0,2.618,1.361,2.618,4.204c0,2.771-0.404,4.132-2.92,4.132h-1.903V211.723z M171.606,219.436h0.902c2.226,0,2.446-0.601,2.446-4.004c0-2.392-0.323-3.083-2.38-3.083h-0.969V219.436z"/>
        <!-- FABOLOUS -->
        <path d="M179.755,211.723h3.52v0.626h-2.784v3.116h2.588v0.625h-2.588v3.969h-0.735V211.723z
            M186.884,211.723l2.596,8.336h-0.774l-0.67-2.191h-3.266l-0.659,2.191h-0.738l2.632-8.336H186.884z M187.841,217.241l-1.422-4.71h-0.022l-1.406,4.71H187.841z
            M190.415,220.059v-8.336h2.322c1.303,0,1.973,0.531,1.973,1.998c0,1.005-0.16,1.699-1.212,1.987v0.022c1.099,0.232,1.387,0.957,1.387,2.009c0,1.5-0.717,2.319-2.111,2.319H190.415z M192.576,215.432c1.061,0,1.397-0.729,1.397-1.678c0-1.384-0.764-1.405-1.351-1.405h-1.467v3.083H192.576z M191.156,219.436h1.177c1.226,0,1.812-0.415,1.812-1.638c0-0.739-0.219-1.744-1.489-1.744h-1.5V219.436z
            M196.907,216.965c0,1.085,0,2.635,1.7,2.635c1.693,0,1.693-1.55,1.693-2.635v-5.242h0.741v5.784c0,2.147-1.135,2.715-2.435,2.715c-1.307,0-2.438-0.567-2.438-2.715v-5.784h0.738V216.965z
            M202.578,220.059v-8.336h0.739v7.713h2.759v0.623H202.578z
            M209.5,211.562c2.491,0,2.516,2.078,2.516,4.328c0,2.253-0.024,4.331-2.516,4.331c-2.496,0-2.519-2.078-2.519-4.331C206.981,213.641,207.004,211.562,209.5,211.562z M209.5,219.6c1.755,0,1.776-1.489,1.776-3.709c0-2.214-0.021-3.703-1.776-3.703c-1.758,0-1.779,1.489-1.779,3.703C207.721,218.11,207.742,219.6,209.5,219.6z
            M214.21,216.965c0,1.085,0,2.635,1.7,2.635c1.693,0,1.693-1.55,1.693-2.635v-5.242h0.741v5.784c0,2.147-1.135,2.715-2.435,2.715c-1.307,0-2.438-0.567-2.438-2.715v-5.784h0.738V216.965z
            M223.471,213.837c-0.022-1.029-0.276-1.649-1.406-1.649c-0.902,0-1.467,0.311-1.467,1.29c0,1.237,0.623,1.273,1.569,1.954c1.027,0.736,2.078,0.957,2.078,2.573c0,1.489-0.764,2.217-2.217,2.217c-1.627,0-2.354-0.877-2.285-2.504h0.761c0,0.924,0.072,1.882,1.561,1.882c0.969,0,1.442-0.521,1.442-1.479c0-1.132-0.75-1.455-1.951-2.194c-1.616-0.993-1.686-1.489-1.699-2.322c-0.012-1.441,0.902-2.042,2.264-2.042c1.732,0,2.104,1.073,2.104,2.274H223.471z"/>
        <!-- FINDS -->
        <path d="M228.214,211.723h3.521v0.626h-2.781v3.116h2.588v0.625h-2.588v3.969h-0.739V211.723z
            M233.563,211.723v8.336h-0.738v-8.336H233.563z
            M235.36,220.059v-8.336h1.132l3.385,7.323l0.021-0.025v-7.298h0.739v8.336h-1.121l-3.393-7.4l-0.025,0.022v7.378H235.36z
            M242.382,211.723h2.205c2.33,0,2.618,1.361,2.618,4.204c0,2.771-0.404,4.132-2.92,4.132h-1.903V211.723z M243.12,219.436h0.902c2.226,0,2.446-0.601,2.446-4.004c0-2.392-0.323-3.083-2.38-3.083h-0.969V219.436z
            M252.289,213.837c-0.024-1.029-0.276-1.649-1.408-1.649c-0.902,0-1.467,0.311-1.467,1.29c0,1.237,0.625,1.273,1.571,1.954c1.027,0.736,2.076,0.957,2.076,2.573c0,1.489-0.762,2.217-2.214,2.217c-1.631,0-2.358-0.877-2.286-2.504h0.761c0,0.924,0.069,1.882,1.559,1.882c0.969,0,1.444-0.521,1.444-1.479c0-1.132-0.753-1.455-1.954-2.194c-1.616-0.993-1.683-1.489-1.696-2.322c-0.011-1.441,0.899-2.042,2.264-2.042c1.729,0,2.101,1.073,2.101,2.274H252.289z"/>
    </g>
</svg>
