<?xml version="1.0" encoding="utf-8"?>
<!-- Generator: Adobe Illustrator 16.2.1, SVG Export Plug-In . SVG Version: 6.00 Build 0)  -->
<!DOCTYPE svg PUBLIC "-//W3C//DTD SVG 1.1//EN" "http://www.w3.org/Graphics/SVG/1.1/DTD/svg11.dtd">
<svg version="1.1" xmlns="http://www.w3.org/2000/svg" width="320px" height="320px" viewBox="0 0 320 320" enable-background="new 0 0 320 320" xml:space="preserve">
    <g>
        <path d="M160,10C77.157,10,10,77.157,10,160s67.157,150,150,150s150-67.157,150-150S242.843,10,160,10z M160,295c-74.559,0-135-60.441-135-135S85.441,25,160,25s135,60.441,135,135S234.559,295,160,295z"/>
        <path d="M155.737,90.794c0.263-0.208,0.537-0.419,0.786-0.624c0.911-0.84,1.611-1.698,2.549-2.845c0.731-1.167,1.846-1.985,2.782-3.131c0.703-0.859,1.406-1.719,2.283-2.251c0.878-0.535,2.217-1.364,3.139-2.126c0.229-0.19,0.391-0.324,0.512-0.428c-0.071,0.088-0.044,0.122,0.365-0.106c0.604-0.333,2.007,2.316,2.823,2.396c1.636,0.158,1.984,2.975,2.419,4.872c0.291,1.267,0.813,2.245,1.544,3.244c0.131,0.19,0.241,0.333,0.363,0.511c0.021-0.032,0.047-0.055,0.068-0.087c0.604-0.892,1.204-1.781,2.004-2.374c0.803-0.595,1.204-0.891,2.206-0.297c0.803,0.594,1.603,0.89,2.405,0.297c0.603-0.297,1.203-0.891,2.006-0.891c1.603,0,2.206,2.671,2.807,4.452c0.398,1.186,1.005,2.076,1.805,2.967c1.002,1.186,0.642,3.042,1.644,3.931c0.966,1.19,1.818,3.065,2.737,4.686c-0.196-0.228-0.451-0.401-0.689-0.368c-1.085-0.069-0.365,0.479-0.758,0.749c-0.308,0.902-2.624-0.293-3.103-0.658c-0.238-0.183-0.481-0.367-0.72-0.549c-0.424,0.058-0.634,0.087-0.875-0.097c-0.509-0.577,0.549-0.718,0.703-1.171c0.365-0.48,0.714-2.68-0.005-3.228c-0.451-0.154-0.634,0.087-1.03,0.354c-0.365,0.48-0.548,0.72-0.971,0.776c-0.424,0.058-0.634,0.086-0.845,0.115c-0.423,0.058-0.605,0.299-0.819,0.327c-0.605,0.298-0.844,0.115-1.535-0.223c-0.902-0.309-2.422,1.19-2.594-0.08c-0.113-0.844-0.554-2.506,0.235-3.044c-0.393,0.27-0.789,0.538-1.395,0.834c-0.424,0.058-0.637,0.087-1.058,0.144c-0.605,0.296-1.182,0.806-1.605,0.862c-0.844,0.113-1.9,0.257-2.745,0.374c-1.06,0.141-1.636,0.65-2.635,1.215c-0.368,0.482-1.029,0.354-1.66,0.44c-0.637,0.085-0.819,0.325-1.215,0.595c-0.606,0.296-0.451-0.153-1.085-0.069c-0.634,0.087-0.155,0.451-0.521,0.931c-0.393,0.27-0.813,0.325-1.026,0.354c-0.424,0.057-0.845,0.114-1.296-0.04c-0.244-0.183-0.058-0.422-0.51-0.577c-0.451-0.152-1.057,0.144-1.27,0.173c-0.357,0.048-1.622,1.688-2.176,2.062l-0.39-0.017c-0.786-0.448-0.415-3.191-0.891-3.73c-0.831-1.395-1.639-2.577-3.357-2.559c-0.875-0.097-1.904,0.257-2.48,0.765c-0.365,0.48-0.8,2.045-1.76,1.314c-0.719-0.548,0.139-2.171,0.476-2.861c0.094-0.875,0.614-1.806,0.952-2.497c0.31-0.902,1.068-1.652,1.885-1.978c0.169-0.082,0.371-0.137,0.576-0.191c0.008,0.028,0.019,0.057,0.03,0.084c0.063-0.05,0.122-0.097,0.186-0.146C155.372,91.272,155.66,91.111,155.737,90.794zM214.626,123.605c1.201-1.188-6.377-2.235-6.377-4.907c0-0.89-0.199-2.669-0.601-3.261c-0.401-0.891-1.403-1.188-2.007-1.781c-1.2-0.593-2.003-1.483-3.204-2.373c-0.404-0.594-0.803-1.186-1.204-2.077c-0.604-0.89-1.406-1.779-2.007-2.669c-0.8-0.891-2.557-0.116-3.359-1.005c-0.601-0.594-1.586-0.794-2.189-1.388c-0.16-0.235-0.31-0.512-0.462-0.771c0.022,0.063,0.058,0.13,0.066,0.189c-0.335,0.691-1.393,0.833-2.239,0.949c-0.844,0.114-1.508-0.012-2.17-0.14c-0.423,0.058-1.057,0.146-1.48,0.202l-0.423,0.057c-0.098,0.013-0.172,0.064-0.247,0.122c-0.144,0.389-0.027,0.867,0.053,1.461c0.022,2.014-2.822-0.374-3.385-0.801c-0.808-0.394-0.877-0.891-1.652-1.038c-0.774-0.146-1.799-0.26-2.228,0.303c-0.708,0.346-0.822,1.37-1.779,1.751c-0.709,0.348-1.45,0.449-2.441,0.582c-0.738,0.101-1.732,0.234-2.721,0.368c-0.249,0.035-0.495,0.069-0.99,0.134c-0.459,0.316-0.326,1.305-0.756,1.868c-0.146,0.775-0.821,1.37-0.969,2.146c-0.183,0.527-0.506,1.832-1.566,1.471c-1.369-0.82,0.949-4.16-0.107-4.521c-0.427,0.562-0.958,0.38-1.351,1.19c-0.18,0.53,0.056,2.261-0.969,2.147c-0.279-0.214-0.349-0.708-0.664-1.169c-0.56-0.429-1.058-0.362-1.45,0.449c-0.214,0.279-0.113,1.022-0.327,1.303c-0.146,0.776-0.576,1.338-0.723,2.115c-0.359,1.057-0.971,2.146-1.545,3.484c-0.179,0.528-0.608,1.089-0.508,1.832c-0.18,0.528-0.081,1.271-1.038,1.653c-1.234,0.166-1.256-1.846-1.392-2.836c-0.066-0.496-0.133-0.99-0.661-1.171c-0.247,0.032-0.493,0.066-0.775-0.146c-0.249,0.035-0.529-0.179-0.595-0.677c-0.033-0.247-0.136-0.988-0.202-1.485c-0.063-0.493,0.114-1.022,0.014-1.764c-0.313-0.461-0.844-0.644-1.157-1.104c-0.564-0.427-1.303-0.328-1.868-0.755c-0.28-0.214-0.379-0.955-0.662-1.171c-0.562-0.427-1.337-0.574-1.832-0.508c-0.742,0.101-1.666,0.729-2.474,0.335c-0.496,0.066-0.811-0.393-1.091-0.607c-0.562-0.428-1.09-0.609-1.832-0.509c-1.303-0.327-2.294-0.194-3.88-0.733c-0.496,0.065-0.811-0.396-1.337-0.577c-0.778-0.146-1.306-0.327-2.081-0.473c-0.529-0.181-1.306-0.328-1.832-0.509c-1.09-0.607-1.935-1.25-2.563-2.172c-0.518-0.647-1.375-0.846-2.067-1.211c-0.548,0.554-1.104,1.117-1.63,1.631c-0.822,0.536-1.849,1.071-2.671,1.875c-1.029,1.338-2.466,2.409-3.495,3.482c-0.822,0.804-1.437,1.605-2.054,2.41c-0.617,0.804-0.481,0.375-1.096,1.178l0.892-1.713c-0.825,1.072-1.439,2.141-2.057,3.21c-0.617,1.071-1.439,1.876-1.644,2.947c-0.617,1.338-10.107,10.172-9.9,11.245c0.205,1.338,14.422-1.075,15.244-0.271c0.615,0.267,2.768,0.706,3.416,0.515c1.209-0.356,2.159-0.67,2.906-0.952c0.155,1.487-0.313,3.283,0.459,3.482c2.056,0.537,4.11-0.445,5.961-0.445c1.716,0,3.376,0,5.037,0c-0.017,0-0.044,0.678-0.039,0.719c0.083,0.617,2.554,0.786,5.455,0.523c1.976,0.968,4.453,3.405,6.252,2.98c1.151-0.333,1.799-2.044,2.524-3.468c0.318,0.025,0.562,0.104,0.642,0.193c0.604,0.299,2.701,0.854,3.333,0.644c0.229-0.078,0.429-0.14,0.642-0.213c0.689,0.378,1.439,1.021,2.208,1.689c-0.033,1.327-0.049,2.187,0.436,2.331c2.004,0.592,4.011,0.602,5.814,0.602c3.006,0,5.812,0,8.82,0c2.007,0,5.272,3.725,7.476,3.133c1.805-0.596,2.35-6.005,3.952-6.6c1.002-0.591,1.604-1.092,2.407-1.686c0.598-0.296,1.201-0.546,1.802-1.14c1.204-0.89,8.001,0.495,9.199-0.098c0.806-0.297,0,0.012,0.604-0.286c1.005-0.296-2.386-3.731-1.583-4.323C202.235,126.407,213.22,124.791,214.626,123.605z M134.947,102.203c-0.011-0.068-0.022-0.134,0.008-0.222c-0.055-0.422,0.578-0.509,1.002-0.564c0.42-0.058,0.634-0.087,1.237-0.383c0.396-0.27,0.761-0.749,1.154-1.017c0.758-0.749,1.364-1.045,2.635-1.218c0.844-0.113,1.691-0.229,2.294-0.526c0.789-0.537,0.917-1.2,1.733-1.525c0.393-0.27,0.816-0.325,1.029-0.354c0.576-0.508,0.728-0.959,1.093-1.439c0.551-0.721,1.608-0.863,2.184-1.373c0.365-0.479,0.31-0.902,0.703-1.171c0.155-0.452,0.548-0.719,0.943-0.988c0.576-0.509,1.392-0.836,2.211-1.161c0.177-0.025,0.628-0.112,1.102-0.155c-0.36-0.854-0.797-1.641-1.437-1.994l-1.981-3.793l-2.064-0.951l-0.62,2.083c-1.06,0.995-2.303,2.881-2.864,3.247c-0.822,0.537-1.439,1.341-2.057,2.144c-0.822,1.071-1.849,1.875-2.466,2.946c-0.822,1.073-1.439,1.875-2.261,2.679c-1.232,1.072-2.671,2.142-3.902,3.481c-0.612,0.682-1.317,1.422-2.029,2.16L134.947,102.203z"/>
        <path d="M89.441,152.097c2.051,0,3.802,0.299,5.255,0.897s2.641,1.461,3.563,2.589c0.922,1.128,1.598,2.504,2.025,4.127c0.427,1.624,0.641,3.461,0.641,5.512s-0.291,3.803-0.872,5.255c-0.581,1.453-1.384,2.641-2.409,3.563s-2.239,1.599-3.64,2.025c-1.402,0.427-2.922,0.641-4.563,0.641h-4.922v21.328h-6.562v-45.938H89.441z M86.16,171.784c1.641,0,2.99-0.111,4.05-0.333c1.059-0.222,1.897-0.59,2.512-1.103s1.042-1.188,1.282-2.025c0.239-0.837,0.359-1.871,0.359-3.102s-0.043-2.35-0.128-3.358c-0.085-1.008-0.384-1.871-0.897-2.589s-1.325-1.273-2.436-1.666s-2.691-0.59-4.742-0.59h-1.641v14.766H86.16z M109.641,186.55l-2.461,11.484h-6.562l9.844-45.938h6.562l9.843,45.938h-6.562l-2.461-11.484H109.641z M117.024,181.628l-3.281-19.688l-3.281,19.688H117.024z M149.938,198.034l-11.741-30.557v30.557h-6.562v-45.938h4.922l11.484,28.403v-28.403h6.562v45.938H149.938z M168.395,186.55l-2.461,11.484h-6.562l9.843-45.938h6.562l9.844,45.938h-6.562l-2.461-11.484H168.395z M175.777,181.628l-3.281-19.688l-3.281,19.688H175.777z M208.487,198.034l-6.613-21.328h-4.922v21.328h-6.562v-45.938h8.203c2.871,0,5.255,0.295,7.152,0.884c1.896,0.59,3.409,1.423,4.537,2.5s1.922,2.371,2.384,3.884c0.461,1.512,0.692,3.191,0.692,5.037c0,1.829-0.192,3.371-0.577,4.627s-0.867,2.299-1.448,3.128s-1.205,1.47-1.871,1.922c-0.667,0.453-1.282,0.782-1.846,0.987l7.383,22.969H208.487z M196.952,171.784h1.641c1.23,0,2.35-0.115,3.358-0.346c1.008-0.231,1.871-0.629,2.589-1.192s1.272-1.32,1.666-2.269c0.393-0.948,0.59-2.141,0.59-3.576s-0.197-2.628-0.59-3.576c-0.394-0.948-0.948-1.705-1.666-2.269s-1.581-0.961-2.589-1.192c-1.009-0.231-2.128-0.346-3.358-0.346h-1.641V171.784z M226.61,186.55l-2.461,11.484h-6.562l9.844-45.938h6.562l9.844,45.938h-6.562l-2.461-11.484H226.61zM233.993,181.628l-3.281-19.688l-3.281,19.688H233.993z"/>
        <path d="M70.38,217.254c0,1.093,0,2.651,1.709,2.651c1.709,0,1.709-1.559,1.709-2.651v-5.278h0.744v5.825c0,2.162-1.139,2.732-2.453,2.732s-2.454-0.57-2.454-2.732v-5.825h0.744V217.254z M76.214,220.37v-8.395h1.139l3.407,7.371l0.023-0.023v-7.348h0.744v8.395H80.4l-3.418-7.453l-0.023,0.023v7.43H76.214z M84.082,211.976v8.395h-0.744v-8.395H84.082zM88.231,211.812c2.732,0,2.535,2.732,2.535,4.36c0,2.197-0.174,3.034-0.954,3.546l0.023,0.023H91.3v0.628h-1.604c-0.174,0-0.337,0.012-0.5,0.023c-0.174,0.012-0.36,0.023-0.604,0.023c-2.883,0-2.895-1.582-2.895-4.244C85.696,214.545,85.499,211.812,88.231,211.812z M90.021,216.173c0-2.116,0.023-3.732-1.791-3.732s-1.791,1.616-1.791,3.732c0,2.418,0.163,3.616,1.791,3.616C89.812,219.789,90.021,218.301,90.021,216.173z M92.983,217.254c0,1.093,0,2.651,1.709,2.651c1.709,0,1.709-1.559,1.709-2.651v-5.278h0.744v5.825c0,2.162-1.139,2.732-2.453,2.732s-2.454-0.57-2.454-2.732v-5.825h0.744V217.254z M102.596,211.976v0.628h-3.058v3.139h2.918v0.628h-2.918v3.372h3.139v0.628h-3.883v-8.395H102.596z M106.451,211.976h3.546v0.628h-2.802v3.139h2.604v0.628h-2.604v4h-0.744V211.976z M113.635,211.976l2.616,8.395h-0.779l-0.674-2.209h-3.291l-0.663,2.209H110.1l2.651-8.395H113.635z M114.6,217.533l-1.43-4.744h-0.023l-1.418,4.744H114.6z M120.805,214.104c-0.023-1.035-0.279-1.663-1.418-1.663c-0.907,0-1.477,0.313-1.477,1.302c0,1.244,0.628,1.279,1.581,1.966c1.035,0.744,2.093,0.965,2.093,2.593c0,1.5-0.768,2.232-2.232,2.232c-1.64,0-2.372-0.884-2.302-2.523h0.767c0,0.931,0.07,1.896,1.57,1.896c0.977,0,1.454-0.523,1.454-1.488c0-1.14-0.756-1.465-1.965-2.209c-1.628-1-1.697-1.5-1.709-2.338c-0.012-1.453,0.907-2.058,2.279-2.058c1.744,0,2.116,1.081,2.116,2.291H120.805z M123.058,220.37v-8.395h0.744v3.767h3.302v-3.767h0.744v8.395h-0.744v-4h-3.302v4H123.058z M130.344,211.976v8.395H129.6v-8.395H130.344z M134.494,211.812c2.511,0,2.535,2.093,2.535,4.36s-0.023,4.36-2.535,4.36c-2.512,0-2.535-2.093-2.535-4.36S131.982,211.812,134.494,211.812zM134.494,219.905c1.767,0,1.791-1.5,1.791-3.732s-0.023-3.732-1.791-3.732c-1.768,0-1.791,1.5-1.791,3.732S132.727,219.905,134.494,219.905z M138.618,220.37v-8.395h1.139l3.407,7.371l0.023-0.023v-7.348h0.744v8.395h-1.128l-3.418-7.453l-0.023,0.023v7.43H138.618z M149.218,214.104c-0.023-1.035-0.279-1.663-1.418-1.663c-0.907,0-1.477,0.313-1.477,1.302c0,1.244,0.628,1.279,1.581,1.966c1.035,0.744,2.093,0.965,2.093,2.593c0,1.5-0.768,2.232-2.232,2.232c-1.64,0-2.372-0.884-2.302-2.523h0.767c0,0.931,0.07,1.896,1.57,1.896c0.977,0,1.454-0.523,1.454-1.488c0-1.14-0.756-1.465-1.965-2.209c-1.628-1-1.697-1.5-1.709-2.338c-0.012-1.453,0.907-2.058,2.279-2.058c1.744,0,2.116,1.081,2.116,2.291H149.218z M156.899,211.976l2.616,8.395h-0.779l-0.674-2.209h-3.291l-0.663,2.209h-0.744l2.651-8.395H156.899z M157.864,217.533l-1.43-4.744h-0.023l-1.418,4.744H157.864z M160.57,220.37v-8.395h1.139l3.407,7.371l0.023-0.023v-7.348h0.744v8.395h-1.128l-3.418-7.453l-0.023,0.023v7.43H160.57z M167.646,211.976h2.221c2.35,0,2.641,1.372,2.641,4.232c0,2.79-0.408,4.162-2.942,4.162h-1.919V211.976z M168.391,219.742h0.907c2.244,0,2.466-0.604,2.466-4.034c0-2.407-0.326-3.104-2.396-3.104h-0.977V219.742z M176.606,211.976h3.546v0.628h-2.802v3.139h2.604v0.628h-2.604v4h-0.744V211.976z M183.79,211.976l2.616,8.395h-0.779l-0.674-2.209h-3.291L181,220.37h-0.744l2.65-8.395H183.79z M184.755,217.533l-1.431-4.744h-0.023l-1.418,4.744H184.755z M187.355,220.37v-8.395h2.338c1.313,0,1.988,0.534,1.988,2.011c0,1.012-0.163,1.71-1.221,2v0.023c1.104,0.232,1.395,0.965,1.395,2.023c0,1.512-0.721,2.337-2.127,2.337H187.355z M189.53,215.708c1.069,0,1.407-0.733,1.407-1.687c0-1.396-0.768-1.418-1.361-1.418H188.1v3.104H189.53z M188.1,219.742h1.187c1.232,0,1.825-0.419,1.825-1.651c0-0.744-0.221-1.755-1.5-1.755H188.1V219.742zM193.898,217.254c0,1.093,0,2.651,1.71,2.651c1.709,0,1.709-1.559,1.709-2.651v-5.278h0.744v5.825c0,2.162-1.14,2.732-2.453,2.732s-2.454-0.57-2.454-2.732v-5.825h0.744V217.254z M199.616,220.37v-8.395h0.744v7.767h2.778v0.628H199.616z M206.59,211.812c2.512,0,2.535,2.093,2.535,4.36s-0.023,4.36-2.535,4.36s-2.535-2.093-2.535-4.36S204.078,211.812,206.59,211.812z M206.59,219.905c1.768,0,1.791-1.5,1.791-3.732s-0.023-3.732-1.791-3.732s-1.791,1.5-1.791,3.732S204.822,219.905,206.59,219.905zM211.343,217.254c0,1.093,0,2.651,1.709,2.651s1.709-1.559,1.709-2.651v-5.278h0.744v5.825c0,2.162-1.14,2.732-2.453,2.732s-2.453-0.57-2.453-2.732v-5.825h0.744V217.254z M220.676,214.104c-0.023-1.035-0.279-1.663-1.419-1.663c-0.907,0-1.477,0.313-1.477,1.302c0,1.244,0.628,1.279,1.581,1.966c1.035,0.744,2.093,0.965,2.093,2.593c0,1.5-0.768,2.232-2.232,2.232c-1.64,0-2.372-0.884-2.302-2.523h0.768c0,0.931,0.069,1.896,1.569,1.896c0.977,0,1.453-0.523,1.453-1.488c0-1.14-0.756-1.465-1.965-2.209c-1.628-1-1.697-1.5-1.709-2.338c-0.012-1.453,0.907-2.058,2.279-2.058c1.743,0,2.115,1.081,2.115,2.291H220.676z M225.462,211.976h3.546v0.628h-2.802v3.139h2.604v0.628h-2.604v4h-0.744V211.976z M230.854,211.976v8.395h-0.744v-8.395H230.854z M232.666,220.37v-8.395h1.14l3.406,7.371l0.023-0.023v-7.348h0.744v8.395h-1.128l-3.418-7.453l-0.023,0.023v7.43H232.666z M239.743,211.976h2.221c2.349,0,2.64,1.372,2.64,4.232c0,2.79-0.407,4.162-2.941,4.162h-1.919V211.976z M240.487,219.742h0.907c2.244,0,2.465-0.604,2.465-4.034c0-2.407-0.326-3.104-2.396-3.104h-0.977V219.742z M249.728,214.104c-0.023-1.035-0.279-1.663-1.419-1.663c-0.907,0-1.477,0.313-1.477,1.302c0,1.244,0.628,1.279,1.581,1.966c1.035,0.744,2.093,0.965,2.093,2.593c0,1.5-0.768,2.232-2.232,2.232c-1.639,0-2.372-0.884-2.302-2.523h0.768c0,0.931,0.069,1.896,1.569,1.896c0.977,0,1.453-0.523,1.453-1.488c0-1.14-0.756-1.465-1.965-2.209c-1.628-1-1.697-1.5-1.709-2.338c-0.012-1.453,0.907-2.058,2.279-2.058c1.743,0,2.115,1.081,2.115,2.291H249.728z"/>
        <path d="M128.786,59.507c-0.129-0.578,0.014-1.105,0.428-1.583c0.415-0.478,0.947-0.789,1.598-0.936c0.501-0.111,1.025-0.107,1.574,0.013c0.181,0.037,0.394,0.112,0.638,0.228l-0.198,0.914c-0.193-0.091-0.39-0.164-0.59-0.219c-0.47-0.129-0.881-0.155-1.232-0.08c-0.38,0.085-0.695,0.258-0.948,0.52c-0.252,0.262-0.339,0.567-0.26,0.918c0.031,0.143,0.09,0.268,0.173,0.375c0.084,0.108,0.207,0.199,0.369,0.274l0.373,0.175c0.086,0.038,0.243,0.087,0.474,0.146c0.229,0.06,0.357,0.095,0.383,0.104l0.584,0.168c0.283,0.082,0.478,0.145,0.583,0.186l0.472,0.182c0.215,0.082,0.371,0.165,0.471,0.248c0.099,0.084,0.213,0.188,0.343,0.312c0.129,0.124,0.231,0.269,0.307,0.432s0.136,0.349,0.183,0.557c0.141,0.628-0.003,1.213-0.431,1.753c-0.428,0.541-0.979,0.887-1.654,1.038c-0.562,0.126-1.141,0.091-1.733-0.106c-0.261-0.083-0.501-0.198-0.722-0.345l0.2-0.93c0.25,0.139,0.491,0.25,0.725,0.332c0.549,0.206,0.995,0.271,1.338,0.194c0.436-0.098,0.777-0.308,1.027-0.63s0.331-0.683,0.241-1.08c-0.078-0.351-0.279-0.635-0.603-0.854c-0.323-0.219-0.694-0.381-1.113-0.486l-1.254-0.334c-0.418-0.117-0.791-0.297-1.12-0.54C129.081,60.209,128.873,59.895,128.786,59.507z M136.356,64.232l-1.481-7.915l1.016-0.19l1.481,7.915L136.356,64.232zM139.135,63.695l-1.14-7.971l1.022-0.146l4.893,5.693l-0.896-6.265l1.022-0.146l1.14,7.971l-1.022,0.146l-4.894-5.698l0.896,6.27L139.135,63.695z M147.543,61.528c-0.889-0.755-1.379-1.705-1.473-2.85s0.236-2.161,0.989-3.051c0.754-0.89,1.703-1.381,2.849-1.475c0.933-0.076,1.806,0.146,2.618,0.665l-0.611,0.72c-0.619-0.396-1.264-0.566-1.936-0.512c-0.869,0.071-1.585,0.456-2.147,1.155s-0.807,1.503-0.732,2.413c0.075,0.909,0.446,1.663,1.115,2.262s1.438,0.861,2.307,0.791c0.687-0.057,1.296-0.326,1.827-0.809l0.721,0.611c-0.726,0.638-1.551,0.994-2.477,1.07C149.447,62.614,148.431,62.283,147.543,61.528z M154.509,62.098l-0.201-8.05l5.131-0.128l0.019,0.735l-4.098,0.102l0.063,2.555l3.407-0.085l0.019,0.735l-3.407,0.085l0.082,3.289l4.098-0.102l0.018,0.735L154.509,62.098z M164.023,54.714c0.236-0.158,0.478-0.296,0.723-0.412c0.599-0.272,1.15-0.396,1.654-0.372c0.666,0.033,1.256,0.284,1.771,0.754c0.515,0.47,0.754,1.066,0.719,1.789c-0.045,0.919-0.748,1.98-2.111,3.184l-1.586,1.411l3.556,0.173l-0.05,1.032l-4.869-0.237l0.051-1.032l2.346-2.109c1.051-0.952,1.594-1.761,1.631-2.426c0.024-0.512-0.101-0.911-0.375-1.198c-0.275-0.286-0.656-0.441-1.146-0.466c-0.367-0.018-0.771,0.086-1.213,0.312c-0.165,0.078-0.35,0.191-0.557,0.338L164.023,54.714zM170.917,61.428c-0.478-0.848-0.653-1.873-0.526-3.076c0.126-1.203,0.51-2.171,1.152-2.903s1.487-1.043,2.533-0.934c1.027,0.107,1.77,0.583,2.227,1.427c0.455,0.843,0.62,1.87,0.493,3.081s-0.499,2.181-1.118,2.91c-0.619,0.729-1.445,1.039-2.477,0.931C172.156,62.754,171.395,62.275,170.917,61.428z M172.236,56.145c-0.445,0.581-0.718,1.353-0.818,2.312c-0.1,0.96,0.008,1.771,0.325,2.432s0.833,1.029,1.549,1.104c0.701,0.073,1.264-0.18,1.688-0.76c0.424-0.58,0.688-1.354,0.788-2.32c0.102-0.967,0.005-1.778-0.29-2.434s-0.793-1.02-1.494-1.093C173.265,55.311,172.682,55.563,172.236,56.145z M177.918,62.226c-0.43-0.873-0.547-1.906-0.354-3.101c0.192-1.194,0.631-2.14,1.312-2.835c0.684-0.694,1.543-0.958,2.58-0.791c1.021,0.165,1.736,0.682,2.145,1.55c0.408,0.867,0.515,1.902,0.32,3.104c-0.194,1.202-0.621,2.149-1.279,2.843s-1.5,0.957-2.525,0.792C179.08,63.619,178.347,63.099,177.918,62.226z M179.531,57.024c-0.478,0.556-0.793,1.31-0.947,2.263c-0.154,0.952-0.092,1.768,0.188,2.445c0.28,0.679,0.774,1.074,1.485,1.189c0.695,0.112,1.271-0.108,1.728-0.664s0.762-1.312,0.917-2.272c0.155-0.961,0.104-1.775-0.154-2.446s-0.734-1.062-1.43-1.175C180.604,56.249,180.008,56.469,179.531,57.024z M184.896,63.42c-0.379-0.896-0.438-1.935-0.178-3.116c0.26-1.182,0.75-2.101,1.471-2.756s1.594-0.87,2.621-0.645c1.01,0.223,1.693,0.778,2.053,1.668c0.357,0.889,0.406,1.928,0.145,3.117c-0.262,1.188-0.74,2.11-1.438,2.766s-1.552,0.871-2.565,0.647C185.979,64.876,185.275,64.315,184.896,63.42z M186.801,58.317c-0.508,0.528-0.865,1.263-1.073,2.205s-0.19,1.761,0.05,2.453c0.241,0.692,0.713,1.116,1.416,1.271c0.688,0.152,1.275-0.036,1.763-0.565c0.486-0.528,0.835-1.268,1.044-2.218c0.209-0.949,0.203-1.767-0.017-2.45c-0.22-0.685-0.673-1.103-1.362-1.254C187.915,57.604,187.309,57.79,186.801,58.317z"/>
        <path d="M97.506,249.426l0.749,0.43l-1.646,5.932l0.023,0.014l4.22-4.454l0.866,0.497l-1.656,5.924l0.023,0.014l4.29-4.414l0.702,0.403l-5.018,4.977l-0.878-0.503l1.602-5.802l-0.023-0.013l-4.142,4.344l-0.877-0.504L97.506,249.426z M105.949,254.218l0.782,0.367l-1.154,6.05l0.024,0.012l3.844-4.788l0.904,0.425l-1.167,6.045l0.024,0.012l3.917-4.754l0.733,0.344l-4.597,5.375l-0.917-0.431l1.122-5.917l-0.024-0.012l-3.773,4.672l-0.917-0.43L105.949,254.218z M114.764,258.309l0.81,0.301l-0.648,6.122l0.025,0.009l3.431-5.088l0.937,0.348l-0.66,6.117l0.024,0.01l3.507-5.061l0.76,0.283l-4.132,5.734l-0.949-0.353l0.626-5.986l-0.024-0.009l-3.371,4.966l-0.949-0.353L114.764,258.309z M122.044,267.057l0.952,0.303l-0.311,0.977l-0.951-0.301L122.044,267.057z M127.384,263.488l0.029-0.006c0.591-0.525,1.316-0.621,1.838-0.48c2.059,0.561,1.583,2.361,1.35,3.222l-0.399,1.473c-0.464,1.707-1.323,2.552-3.004,2.095c-0.482-0.131-0.9-0.497-1.135-1.232l-0.022-0.02l-0.878,3.231l-0.782-0.212l2.464-9.07l0.756,0.205L127.384,263.488z M126.574,266.571c-0.407,1.499,0.076,2.399,0.793,2.594c1.29,0.351,1.779-0.678,2.246-2.397c0.464-1.707,0.562-2.842-0.728-3.193c-0.508-0.137-1.55,0.195-1.992,1.824L126.574,266.571zM135.278,270.712l-0.026-0.006c-0.558,0.544-1.272,0.722-2.091,0.547c-1.188-0.255-1.662-1.198-1.414-2.359c0.5-2.336,2.799-1.597,4.167-1.413l0.119-0.555c0.209-0.977,0.046-1.633-1.011-1.859c-0.726-0.154-1.383,0.078-1.552,0.869l-0.845-0.18c0.34-1.268,1.437-1.557,2.599-1.309c0.673,0.145,2.058,0.51,1.693,2.212l-0.717,3.353c-0.102,0.475-0.192,0.897-0.279,1.693l-0.818-0.175L135.278,270.712z M135.779,268.113c-1.144-0.203-2.831-0.702-3.179,0.922c-0.161,0.752,0.089,1.454,0.907,1.629c0.911,0.195,1.825-0.465,2.012-1.336L135.779,268.113z M139.156,272.277l-0.8-0.125l1.056-6.734l0.8,0.125l-0.129,0.827l0.026,0.004c0.475-0.499,1.058-0.817,1.777-0.705c1.667,0.261,1.646,1.528,1.508,2.409l-0.744,4.748l-0.8-0.126l0.738-4.708c0.123-0.787-0.068-1.568-1.002-1.715c-0.721-0.112-1.531,0.266-1.768,1.773L139.156,272.277zM148.695,272.663l-0.027-0.003c-0.495,0.602-1.186,0.857-2.018,0.772c-1.209-0.122-1.784-1.008-1.664-2.189c0.24-2.376,2.605-1.894,3.986-1.862l0.057-0.564c0.101-0.993-0.134-1.627-1.208-1.736c-0.738-0.074-1.365,0.229-1.447,1.034l-0.859-0.087c0.199-1.295,1.258-1.704,2.439-1.584c0.685,0.068,2.102,0.279,1.926,2.012l-0.345,3.411c-0.049,0.483-0.092,0.913-0.092,1.714l-0.832-0.084L148.695,272.663z M148.907,270.025c-1.158-0.076-2.891-0.387-3.058,1.265c-0.077,0.765,0.248,1.436,1.081,1.521c0.926,0.094,1.763-0.664,1.852-1.55L148.907,270.025z M152.962,267.898l0.027,0.002c0.373-0.628,1.11-0.992,1.932-0.945l-0.046,0.822c-1.141-0.16-1.934,0.484-1.998,1.63l-0.248,4.379l-0.809-0.046l0.385-6.804l0.809,0.046L152.962,267.898z M159.598,273.17h-0.027c-0.442,0.642-1.109,0.955-1.947,0.941c-1.215-0.019-1.863-0.854-1.845-2.041c0.038-2.391,2.438-2.109,3.817-2.195l0.009-0.567c0.016-0.999-0.271-1.612-1.352-1.629c-0.743-0.012-1.343,0.343-1.355,1.153l-0.864-0.014c0.088-1.309,1.109-1.806,2.298-1.787c0.688,0.012,2.119,0.102,2.091,1.844l-0.054,3.43c-0.008,0.486-0.015,0.918,0.054,1.717l-0.837-0.014L159.598,273.17z M159.586,270.523c-1.162,0.021-2.916-0.141-2.941,1.52c-0.013,0.77,0.369,1.41,1.206,1.424c0.932,0.016,1.701-0.811,1.715-1.701L159.586,270.523z M162.717,265.253l-0.027-1.025l0.998-0.026l0.027,1.024L162.717,265.253z M163.048,273.964l-0.185-6.812l0.809-0.021l0.186,6.811L163.048,273.964zM167.39,273.817l-0.808,0.065l-0.556-6.81l0.728-0.06l0.068,0.848l0.027-0.002c0.277-0.578,0.782-1.039,1.535-1.101c0.7-0.058,1.352,0.282,1.635,0.937c0.281-0.699,0.828-1.137,1.582-1.199c1.131-0.092,1.787,0.641,1.916,1.727l0.413,5.061l-0.808,0.066l-0.396-4.859c-0.068-0.671-0.372-1.404-1.166-1.34c-1.023,0.083-1.33,1.138-1.258,2.025l0.357,4.375l-0.808,0.065l-0.396-4.858c-0.068-0.672-0.372-1.406-1.166-1.341c-1.022,0.083-1.329,1.138-1.257,2.026L167.39,273.817z M176.504,266.877l0.024-0.017c0.329-0.719,0.954-1.101,1.487-1.181c2.109-0.318,2.401,1.522,2.534,2.404l0.228,1.508c0.264,1.749-0.182,2.868-1.904,3.128c-0.494,0.074-1.023-0.091-1.535-0.67l-0.028-0.009l0.499,3.311l-0.801,0.121l-1.401-9.293l0.774-0.117L176.504,266.877z M177.006,270.024c0.231,1.536,1.036,2.165,1.771,2.054c1.321-0.199,1.354-1.338,1.089-3.1c-0.264-1.749-0.631-2.827-1.953-2.627c-0.521,0.078-1.34,0.803-1.088,2.471L177.006,270.024z M182.637,269.262l-0.297-1.44c-0.358-1.731,0.172-2.901,1.73-3.224s2.51,0.542,2.867,2.273l0.298,1.44c0.358,1.731-0.172,2.901-1.731,3.224C183.945,271.857,182.994,270.992,182.637,269.262z M183.279,268.371c0.361,1.744,0.785,2.801,2.094,2.529c1.309-0.27,1.279-1.408,0.92-3.152c-0.358-1.73-0.783-2.787-2.092-2.516C182.893,265.502,182.922,266.641,183.279,268.371zM189.275,264.48l0.025-0.007c0.168-0.71,0.761-1.279,1.559-1.481l0.203,0.797c-1.135,0.191-1.697,1.045-1.415,2.156l1.081,4.25l-0.785,0.199l-1.68-6.604l0.785-0.199L189.275,264.48z M191.715,263.57l-0.182-0.623l1.05-0.305l-0.392-1.348l0.679-0.562l0.489,1.684l1.322-0.384l0.181,0.622l-1.321,0.384l1.221,4.197c0.253,0.868,0.404,1.05,1.025,0.868c0.26-0.075,0.438-0.141,0.598-0.216l0.196,0.673c-0.226,0.094-0.481,0.183-0.728,0.254c-1.049,0.306-1.496-0.07-1.729-0.873l-1.361-4.677L191.715,263.57z M199.98,267.613c-1.394,0.469-2.172-0.023-2.619-1.396l0.78-0.262c0.297,0.882,0.699,1.4,1.685,1.07c0.741-0.25,0.957-0.793,0.716-1.509c-0.567-1.688-3.324-0.276-4.042-2.411c-0.4-1.189,0.275-1.887,1.4-2.266c1.279-0.431,1.985,0.314,2.316,1.299l-0.754,0.254c-0.314-0.806-0.678-1.167-1.547-0.875c-0.551,0.186-0.865,0.689-0.671,1.266c0.542,1.611,3.298,0.199,4.025,2.36C201.68,266.357,201.183,267.209,199.98,267.613z M203.536,265.116l0.934-0.354l0.364,0.959l-0.934,0.354L203.536,265.116z M207.988,259.182c-0.295-0.799-0.812-1.225-1.671-0.861c-0.46,0.194-0.735,0.619-0.702,1.147c0.021,0.328,0.311,1.218,0.663,2.051c0.479,1.132,1.116,2.637,2.272,2.147c0.982-0.416,0.844-1.091,0.561-1.865l0.746-0.316c0.777,1.666-0.295,2.457-0.879,2.704c-2.127,0.9-2.838-0.778-3.496-2.333c-0.264-0.621-0.654-1.615-0.692-2.156c-0.056-1.031,0.517-1.655,1.374-2.019c1.082-0.458,2.074-0.159,2.57,1.186L207.988,259.182z M211.295,260.11l-0.644-1.323c-0.773-1.592-0.548-2.857,0.886-3.555c1.433-0.696,2.567-0.092,3.342,1.499l0.643,1.324c0.773,1.591,0.549,2.856-0.885,3.554S212.068,261.701,211.295,260.11z M211.699,259.088c0.779,1.604,1.451,2.523,2.654,1.938c1.202-0.585,0.895-1.681,0.115-3.284c-0.773-1.592-1.446-2.512-2.648-1.926C210.617,256.4,210.926,257.497,211.699,259.088z M219.617,258.933l-0.702,0.403l-3.397-5.922l0.633-0.363l0.422,0.737l0.023-0.013c0.006-0.642,0.266-1.273,0.922-1.648c0.608-0.35,1.342-0.318,1.876,0.152c-0.043-0.754,0.266-1.381,0.921-1.758c0.982-0.563,1.887-0.18,2.467,0.748l2.523,4.4l-0.701,0.402l-2.424-4.225c-0.348-0.578-0.935-1.113-1.625-0.717c-0.89,0.51-0.719,1.594-0.275,2.367l2.182,3.803l-0.701,0.403l-2.424-4.226c-0.348-0.578-0.935-1.112-1.625-0.717c-0.89,0.511-0.719,1.595-0.275,2.367L219.617,258.933z"/>
    </g>
</svg>
